<svg xmlns="http://www.w3.org/2000/svg" width="1131.584" height="316.676"><path d="M299.787 193.435c27.754-72.179 32.668-152.313-8.166-181.666-3.34-.61-4.9 1.039-7.963.78-8.31-17.954-53.872-14.211-74.021-3.898-2.413 5.43-7.496 8.121-10.332 15.593-2.813 7.415-5.054 22.492.652 22.611 8.019.168 9.055-20.098 18.509-21.051 40.374-10.465 72.684-.134 84.359 24.949 16.266 34.941-1.033 109.415-30.357 157.495-7.404 8.42-21.229 26.509-21.229 26.509s-20.139 22.611-72.698 52.238c-8.372 3.686-19.8 8.098-29.277 9.356-31.457 4.181-54.83-8.706-45.843-37.425 5.904-18.867 18.808-33.605 27.428-48.34 2.867-4.9 10.25-14.486 10.712-21.051.292-4.137-3.534-18.043-11.334-16.374-4.137.886-14.122 18.216-19.503 25.729-19.499 27.23-41.396 50.443-64.366 71.73-7.924 7.344-16.362 15.997-26.141 20.271-.888-17.099 9.376-34.707 17.624-49.899 20.646-38.026 45.283-72.48 68.257-108.375 3.907-6.104 13.335-16.792 13.997-21.831.995-7.576-6.864-13.57-12.728-17.152-7.478 4.445-8.915 12.811-12.72 19.491-3.843 6.749-8.641 13.307-12.885 20.271-2.394 3.928-3.782 8.483-6.551 12.476-6.107 8.804-14.827 17.75-20.779 28.068-7.228 12.527-12.804 21.374-19.436 32.746-17.844 30.606-44.032 73.782-31.894 106.039 12.13 9.212 23.171.407 31.899-7.017 2.918-2.481 7.265-3.972 9.902-6.238 3.137-2.693 5.704-6.873 9.172-10.135 9.558-8.992 21.433-21.178 29.639-25.73-.451 12.922-2.059 25.12 3.789 33.527 8.928 12.834 35.75 21.645 60.736 18.712 29.953-3.516 55.553-20.858 77.131-32.747 7.121-8.572 18.303-14.556 27.583-23.391 7.065-6.727 15.757-19.732 22.339-28.068 8.491-10.75 18.975-23.847 24.495-38.203zm227.945-96.681c-1.002.378-1.945.831-2.671 1.56-5.859 4.795-5.591 19.793-7.906 33.525-2.26 13.403-4.326 26.627-7.175 37.425-6.883 26.086-17.138 51.235-20.705 71.73-3.177 18.257-2.809 48.376 9.003 53.019 5.334 2.097 11.432.732 15.477-3.119 4.479-11.976-6.02-13.596-7.669-22.61-2.963-16.199 6.63-43.937 14.916-70.171 8.62-27.297 13.961-57.242 16.075-75.629 1.34-11.672-.35-23.582-9.345-25.73zm54.193 67.832c15.604-12.512 30.969-64.188 11.182-70.95-.693-1.767-3.619 1.925-5.175 2.338-3.767 22.155-8.639 46.55-14.584 68.612 4.025-.511 6.085.98 8.577 0zm50.374 49.121c5.933 1.011 7.292 14.607 17.669 8.576 9.704-13.914-1.395-25.887-7.854-32.746-2.299.453-6.258-.55-10.136 0-16.137 2.283-45.532 21.398-49.678 31.967-2.101 5.356-3.386 16.884-.41 20.271 4.468 5.086 17.349 1.883 27.405 3.118 10.426 1.28 17.109 6.03 22.796 10.136 13.579 19.248-20.849 31.901-39.609 24.95-.077-7.224-1.601-13.255-9.492-14.034-8.85 2.02-13.12 19.529-11.872 26.509 2.143 11.979 30.449 15.772 48.525 10.136 3.857-1.203 11.545-4.46 14.58-6.237 27.132-15.886 17.908-56.101 1.445-65.493-7.712-4.4-15.307-3.745-26.576-7.018 4.351-3.842 17.208-11.158 23.207-10.135zm488.072-151.743c-4.384 2.157-7.418 9.267-8.841 14.968-8.654 34.681-20.203 84.903-26.497 118.213-15.094-15.56-46.164 1.904-61.02 12.036-3.949 2.693-9.067 5.199-12.166 7.713-14.475 11.743-28.549 38.988-22.014 56.145 3.641 9.557 19.797 18.066 33.973 21.133 17.711 3.827 37.336-3.048 51.656-8.804 5.76 11.935 7.307 26.961 27.297 28.456 18.186-10.875 2.23-18.824-4.144-29.021-7.293-10.153-4.017-30.545-2.077-39.554a2.521 2.521 0 0 1-.371-.52c9.185-36.112 14.254-94.423 28.133-137.593 5.857-18.216 14.645-41.176-3.929-43.172zm-46.711 197.879c-2.949 5.648-15.491 10.29-21.53 10.946-21.465 2.331-52.783-7.403-39.241-26.966 7.704-11.129 37.259-29.543 55.015-28.841 1.672 3.418 1.138 8.458.845 13.317 1.08 2.844 5.572 3.186 8.709 4.519-5.491 11.332.987 17.869-3.798 27.025zm-708.231-31.677c-1.366-3.111-3.021-6.186-4.357-10.115-8.777-17.802-18.058-22.661-22.229-23.981-4.323-.655-6.983-2.958-11.767-.634-20.758 10.08-45.557 37.6-53.188 63.153-5.4 18.083-1.425 33.974 5.582 39.764 29.187 24.118 83.393-15.644 88.292-52.238.753-5.624.054-9.602-1.23-13.201a65.268 65.268 0 0 1-1.103-2.748zm-26.146 36.219c-6.232 7.103-9.882 8.709-19.189 13.255-11.338 5.535-31.88 7.387-31.09-7.797.57-10.975 14.625-30.508 25.613-40.851v-.001s1.822-2.125 4.805-4.063c1.043-.765 2.025-1.402 2.916-1.866.16.018.322.037.482.057 4.445-1.856 10.255-2.308 16.303 2.672 0 0 11.925 8.015 11.363 13.98.057.148.119.294.172.444-1.912 11.016-4.201 15.995-11.375 24.17zm94.959-61.594c-1.984.173-4.018.713-6.081 1.395-1.369.844-4.212 1.896-9.003 3.157l-.002.001c-.551.166-1.102.325-1.653.466-31.206 9.298-39.562 43.007-39.562 43.007-4.007 16.155-9.707 29.758-2.97 40.078 8.755 13.412 35.038 14.744 56.371 6.238 8.569-3.418 23.655-13.939 30.7-23.391 21.666-29.069 4.733-73.791-27.8-70.951zm20.464 46.781c-3.084 15.476-27.125 32.479-46.558 31.967-6.642-.176-17.455-3.531-18.449-8.577-1.276-6.479 13.905-34.679 18.422-38.983 5.943-5.664 18.408-7.988 26.773-8.576 12.932-.909 22.644 9.956 19.812 24.169zm533.121-12.211c1.621-7.107 4.383-13.676 4.864-19.93 1.526-19.753-5.812-41.092-19.961-43.532-20.211-3.485-36.364 15.541-50.602 26.814-2.132-7.472 2.654-24.98-9.549-23.295-6.445.89-11.459 14.169-11.432 24.142.012 4.37 2.273 5.689 1.926 9.496-1.677 18.351-11.982 34.883-12.644 47.451-26.511 25.654-80.956 37.124-123.983 30.952-10.573-1.515-24.21-6.164-29.791-11.477-14.362-13.673 3.513-48.602 16.218-68.253 38.447-8.512 77.623-15.909 124.607-11.413 2.782-3.054 6.031-5.394 7.007-11.199-6.438-6.644-17.025-9.399-30.223-9.948-13.704-.571-29.389-.812-44.008.769-15.1 1.634-29.874 6.552-41.537 5.624 2.72-12.698 21.835-32.269 23.291-44.355.76-6.311-4.915-7.396-4.395-14.35 16.369-3.928 40.92-8.926 59.081-10.614 10.609-.985 25.303 2.755 28.198-7.353 2.985-10.422-12.076-8.604-20.844-9.227-2.823 1.393-4.498 3.059-5.445 1.479-.678-1.13-2.045-2.368-3.372-3.409-1.974-.554-3.911-.959-6.153-.75-36.379 3.395-81.096 9.48-113.428 20.786-14.903 39.073 33.357 9.497 48.617 12.817-9.924 22.431-20.957 43.172-34.07 60.744-7.586 2.846-17.047-.396-23.024-.078-4.597 5.646-6.949 15.943-3.574 20.801 3.065 4.414 9.604 2.041 13.765 5.659-10.249 24.132-17.635 47.864-13.631 64.538 4.188 17.438 27.383 29.508 50.211 31.646 32.259 3.021 77.397-2.98 99.97-13.945 6.673-3.24 11.102-9.606 17.872-8.866-1.176 7.476 8.334 12.474 15.808 6.583 12.081-28.178 20.179-67.24 41.416-86.736 7.747-7.112 19.261-10.308 30.785-11.067 4.433 6.664 6.213 14.924 4.599 24.503-4.7 27.864-24.99 49.783-21.602 70.99 6.157 2.697 15.055 1.41 18.617-3.355 2.225-4.864-1.264-5.537.55-10.1 10.007-11.847 12.105-26.043 15.866-42.542z" fill-rule="evenodd" clip-rule="evenodd" fill="#333334"/></svg>