<svg xmlns="http://www.w3.org/2000/svg" width="89.865" height="48.648"><path fill="#EDEDEE" d="M44.204 18.266c0-1.395-.127-2.815.215-4.188.312-1.214 1.361-1.948 2.138-2.85 1.539-1.816 4.611-3.212 6.903-3.742 5.689-1.336 10.99 1.083 12.229 7.001 2.02-.985 4.885-1.731 6.893-.071 2.509 2.057 2.593 4.859 2.551 7.844 5.154-.289 8.993 4.606 7.803 9.491-.2.794-.573 1.829-1.422 2.141-.979.361-.228 2.779-.425 3.79-.463 2.262-3.557 3.477-5.66 2.875.066 2.791-2.401 4.463-4.945 4.729-2.274.24-6.004-2.43-5.215-5.018-2.43 1.842-7.682 4.2-10.527 1.817-.708-.603-1.498.397-2.237.818-1.053.602-2.196.624-3.375.624-.943-.022-1.785-.022-2.536-.672-1.041-.914-.892-1.3-2.251-.482-3.351 1.997-8.415 3.898-12.354 2.576-1.462-.494-3.032-2.312-3.406-3.803-.305-1.25-4.215.746-5.383.65-1.372-.122-3.146-.734-3.645-2.118-.252-.673-2.021-.313-2.538-.313-.969.013-1.679-.456-2.359-1.094-.534-.518-1.028-1.106-1.346-1.793a2.6 2.6 0 0 1-.258-.938c-.044-.769-.561-.528-1.283-.696-1.755-.41-4.144-2.312-4.973-3.924-.759-1.49-.982-3.318-.754-4.955.302-2.202 1.732-2.768 3.266-4.091 1.891-1.611 4.693-2.309 7.051-2.983 2.689-.77 4.265.529 6.496 1.708.18-1.179.026-2.599 1.517-2.898-2.087-1.89-1.179-5.462.456-7.292 2.095-2.346 5.324-3.452 8.41-3.452 3.049.012 6.459.517 8.191 3.2.76 1.179.916 2.598 1.192 3.934.18.879 1.017 2.683 1.662 3.308"/><g fill-rule="evenodd" clip-rule="evenodd"><path d="M52.029 5.61c.042-.312.59-.336.614-.686.019-.348-.357-.288-.362-.686.307-.264 1.204-.3 1.587-.071.085.24-.401.215-.323.577.158.169.521.12.648-.036.151-.204-.042-.349.037-.541.318-.132.535-.241.829-.265.379-.012.736.216 1.085.288.56.132 1.232-.023 1.839.048.98.109 1.895.65 2.816 1.011.956.373 1.793.818 2.418 1.372.98.853 2.037 1.708 2.459 3.285.132.492.211 1.238.535 1.334.338.108.934-.289 1.269-.396.639-.205 1.427-.397 2.347-.324.397.023.824.143 1.229.216.408.072.858.096 1.227.216.277.096.575.336.901.542.319.204.679.301.902.506.283.252.909 1.202 1.084 1.624.19.456.209 1.154.325 1.732.162.793.529 1.42.36 2.347-.055.288-.416.925-.938.757-.379-.121-.247-.841-.291-1.299a6.13 6.13 0 0 0-2.236-4.151c-.614-.493-1.233-.95-2.166-1.045-1.396-.157-2.49.18-3.211.686-.362.252-.734.938-1.234.938-.733 0-.571-.878-.612-1.588a7.387 7.387 0 0 0-1.986-4.657c-1.112-1.191-3.398-1.732-5.521-2.02-.556-.074-1.168-.074-1.77-.074-.757 0-1.443 0-2.056.073-.597.071-1.088.348-1.805.287zm-.831-1.203c-.096.313-.239.723-.512.771-.287.048-.517-.276-.787-.361.151-.385.802-.602 1.299-.41zM28.642 5.586c.379-.518 1.024-.746 1.624-1.009.651-.265 1.468-.326 2.31-.386 1.659-.145 2.929.313 4.402.65.975.217 1.891.722 2.599 1.155.362.205.956.771 1.197 1.083.475.601 1.06 1.551 1.445 2.526.449 1.143.956 2.683.431 3.825-.118.253-.36.518-.576.794-.458.565-.59.854-1.191 1.371-.186.156-.517.433-.727.47-.397.072-.971-.084-1.006-.445-.048-.457.789-.649 1.12-.818.498-.265 1.185-.673 1.441-1.203.489-.986.212-2.394-.071-3.321-.149-.481-.408-.913-.649-1.371-.89-1.661-2.111-2.767-4.013-3.537-.416-.169-.927-.265-1.442-.312-.511-.06-1.059-.169-1.552-.193-1.979-.049-3.597.468-5.342.721zm20.385-.408c-.065.277-.235.456-.613.432.054-.3.275-.432.613-.432zm1.161 1.01c.084-.204.397-.493.571-.721.247.036.662.06.687.215.053.254-.896.494-1.258.506zm-.289.072c-.302.554-1.166.853-1.876 1.119.239-.494.589-.879.824-1.384.419.024.668.217 1.052.265zm-21.654-.601c-.053.265-.312.481-.506.625-.938.697-1.804 1.432-2.597 2.333-.243.277-.375.625-.577.914-.133.18-.338.312-.434.506-.259.482-.188 1.215-.578 1.685a3.485 3.485 0 0 1 0-.963c.048-.361.276-.577.397-.866.084-.216.071-.481.18-.698.09-.169.312-.361.471-.578.147-.192.269-.457.396-.601.145-.192.373-.288.542-.482.15-.155.231-.384.395-.577.58-.661 1.367-1.262 2.311-1.298zm18.509 1.107c.215.048.096.432.215.576.265.205.697.132.975 0-.638.855-1.358 1.517-2.095 2.31-.448.481-.684 1.324-.938 2.057-.342 1.022-.456 1.746-.397 3.033.033.588.11 1.516-.396 1.479-.396-.024-.463-1.203-.506-1.733-.106-1.527.295-3.487.901-4.474.133-.217.314-.253.397-.542.121-.421.013-.926.182-1.192.139-.227.47-.312.756-.396.207-.469.395-.951.906-1.118zm-.47 1.227c-.482-.204-.53.493-.435.866.333.144.725-.506.435-.866zm-1.191 1.948c.156 0 .26-.145.361 0 .016-.192-.091-.18 0-.433-.241-.084-.561.169-.361.433z"/><path fill="#FFF" d="M45.849 8.859c-.096-.374-.048-1.07.435-.866.29.36-.102 1.01-.435.866zm-.394.649c-.091.253.016.241 0 .433-.102-.145-.205 0-.361 0-.201-.264.119-.517.361-.433z"/><path d="M23.733 13.358c.644.457.355 1.299 1.082 1.539.41.156.945-.12 1.482-.096.456.012.925.289.938.722.011.445-.392.565-.614.757-.132.109-.469.518-.757.578-.361.073-.806-.252-1.155-.229-.517.048-1.033.723-.975 1.275.024.217.228.458.434.614.144.107.57.288.541.505-.055.325-.529.156-.757.325-.324.241-.162.613-.397 1.047-.108.204-.463.541-.728.685-.169.096-.92.385-.967-.072-.05-.434 1.015-.421 1.009-.938a1.33 1.33 0 0 0-.252-.94c-.272-.359-.963-.817-1.377-1.009-.579-.265-1.372-.482-2.129-.614-.8-.133-1.65-.072-2.562-.072-.783 0-1.565-.061-2.31.072-.559.109-1.137.242-1.661.361-1.438.324-2.268.878-3.285 1.624-.546.385-1.12.903-1.48 1.372-.469.602-.498 1.515-1.261 1.84-.184-.204-.245-.528-.479-.684-.277-.048-.362.097-.612.072.162-.782.6-1.13 1.161-1.695.329-.35.649-.734.973-.975.934-.699 2.185-1.143 3.395-1.841 1.232-.709 2.692-.962 4.186-1.01.769-.036 1.666-.096 2.453-.036.542.036 1.263.205 1.913.325.609.108 1.263.325 1.661.542.458.24 1.161 1.035 1.738.866.368-.108.199-.601.254-1.118.029-.301.108-.59.252-.83.215-.397.649-.579.686-1.083.04-.688-.635-1.206-.4-1.879zm52.266 25.684c-.154.662.15 1.3-.037 1.877-.114.348-.552.806-.866 1.011-.612.396-1.558.709-2.453 1.011-.877.301-1.918.517-2.996.434-1.125-.085-2.177-.566-2.85-1.012-1.078-.709-1.986-2.562-1.92-3.969.036-.686.373-1.528.831-1.48.606.049.252 1.01.294 1.516.085 1.154 1.335 2.117 2.238 2.526 1.186.528 4.023 1.06 5.125.108.806-.697 1.01-1.938.647-3.188-.1-.337-.294-.794-.106-1.07.265-.409 1.425-.037 2.166.036.816.072 1.821 0 2.345-.217.812-.336 1.764-1.54 1.661-2.936-.044-.625-.626-1.131-.723-1.756-.079-.529.049-1.3.288-1.637.32-.432.903-.506 1.335-.793.699-.457 1.428-1.517 1.486-2.527.037-.77-.306-2.117-.583-2.695-.223-.493-.66-.998-1.191-1.516-.896-.914-1.995-2.021-3.969-1.853-.548.049-1.433.241-1.914.685-.247.242-.3 1.072-.864 1.12-.537.047-.724-.434-.687-.903.029-.432.373-.878.543-1.045.773-.746 2.445-1.251 4.075-1.011 1.154.181 2.291.757 3.141 1.408.787.601 1.618 1.527 2.058 2.395.168.312.337.769.438 1.227.163.77.362 1.48.434 2.455.054.793.127 1.419-.108 2.117-.085.24-.585 1.059-.764 1.274-.523.601-1.358.818-1.583 1.396-.379.986.008 2.141.066 3.152.127 1.9-.872 2.814-2.382 3.32a8.603 8.603 0 0 1-1.624.361c-.548.047-1.07-.134-1.551.179zM5.207 22.489c.103.265.019.951-.355.975-.116-.41.193-.722.355-.975zm1.232.685c.11.481-.011 1.047-.257 1.299-.405-.312-.559-1.347.257-1.299zm79.31 6.882c-.257-.53.037-1.095.181-1.563.066-.218.079-.433.146-.65.156-.493.509-.818.469-1.37-.048-.554-.464-.675-.651-1.18-.005-.071.026-.096.074-.12.769.024 1.215 1.396 1.118 2.453-.105 1.105-.484 2.405-1.337 2.43zM4.45 25.124c.606-.025.583.975.073.865-.291-.06-.267-.649-.073-.865zm1.918 1.623c.283.157.333.566.362.976-.519 0-.934-.724-.362-.976zm-1.551.397c.528-.096.794.627.324.795-.199-.157-.423-.459-.324-.795zm2.597 2.093c-.125.073-.504-.096-.618.073-.055.264.125.528.33.54.253.014.211-.252.434-.325 1.028.579 1.197 1.517 2.382 1.997.794.302 2.371.554 3.608.29.429-.109 1.163-.457 1.409-.12.188.252-.096.865-.18 1.275-.14.66-.325 1.299-.037 1.828.342.649 1.096 1.033 1.806 1.227.685.192 2.056.361 2.958.145.362-.072.938-.481 1.265-.312.456.204.005.793.106 1.443.177 1.035 2.082 1.48 3.398 1.396a4.641 4.641 0 0 0 1.409-.289c.348-.12.729-.517 1.192-.288-.103.806-1.239.986-2.095 1.058-.962.073-2.275.097-3.001-.192-.487-.18-1.004-.638-1.227-.963-.307-.469-.265-.938-.723-1.129-.377-.145-.907-.049-1.37-.024-2.389.06-4.145-.493-4.91-2.069-.265-.542-.239-1.312-.647-1.516-.453-.217-1.221-.145-1.663-.289-1.37-.434-2.742-1.179-3.68-2.094-.222-.216-.344-.457-.612-.686-.495-.422-1.151-.59-1.229-1.371.318-.146.554.131.787.071.32-.083.18-.517.441-.721.263.24.498.516.467 1.045zm55.297 7.628c-.506-.036-.638.77-.758.985-.229.41-.679.975-1.083 1.229-1.298.806-3.934.215-4.943-.543-.307-.228-.596-.564-.975-.541-.59.023-.842.867-1.229 1.264-.71.722-1.935 1.432-3.038 1.623-.559.098-1.389.17-2.02.037-.265-.061-.548-.193-.831-.289-.673-.24-1.335-.541-1.552-1.227-.102-.324.15-1.408-.252-1.588-.48-.217-.98.782-1.12.975-.842 1.202-2.479 2.141-3.932 2.598-.776.24-1.835.457-2.781.542-1.089.085-2.196.204-3.174.181-.507-.024-1.07-.121-1.596-.181-.522-.061-1.015-.157-1.442-.325-1.364-.529-2.54-1.18-2.924-2.49-.368-1.264.336-2.369 1.046-2.924.312-.24.818-.275.94-.77-.723-.481-1.631.506-1.915.987-.23.384-.292.865-.493 1.347-.013.024-.625 1.637.896 3.225.018.023.044.035.061.061.896.902 2.688 1.792 5.155 2.057a.465.465 0 0 0 .127.023c1.955.193 4.323 0 6.996-.879.379-.443 1.179-.746 1.595-1.105.294-.254.54-.471.9-.687.247-.155.747-.529 1.084-.505.299.025.59.41.865.613.306.205.722.397.976.506.667.277 1.533.625 2.28.723 1.754.229 3.27-.422 4.259-1.156.324-.252.637-.781 1.081-.866.747-.133 1.444.421 2.236.578 1.067.204 2.407.12 3.285-.108.277-.072.621-.119.904-.217.774-.289 1.749-1.082 1.803-2.142.027-.386-.027-.963-.431-1.011z"/></g><path d="M25.326 28.34c-.259.373-1.335 3.92-1.973 2.786-.596-1.06-.795-2.979-.965-4.181-.081-.574-.464-1.755-.176-2.316.377-.735.779.666.821.917.214 1.274.212 2.734.754 3.921.312-.196.497-1.092.61-1.417.203-.586.52-1.214.791-1.795 1.144-2.456 1.839 2.367 2.458 3.078.383 0 1.812-3.595 2.054-4.072.318-.625.72-1.213 1.014-1.848.389-.808.629-.29.353.292-.66 1.389-1.354 2.795-1.899 4.232-.362 1.158-.723 2.453-1.547 3.339-.545-.501-.769-1.488-1.02-2.167-.117-.496-.349-1.851-.731-2.211-.282.159-.563 1.402-.544 1.442-.264.38 0 0 0 0zm9.085 1.843c-.873 1.324-2.732 1.953-3.945.787-.7-.674-.967-2.319-.006-2.898.662-.61 1.833-1.218 2.757-1.055 1.243.218 1.801 2.16 1.194 3.166-.17.257.161-.268 0 0zm-1.377-2.1c-1.108 0-3.52 1.527-1.529 2.356 1.428.595 3.302-2.356 1.529-2.356-.374 0 .518 0 0 0zm6.721 2.1c-.875 1.323-2.732 1.954-3.946.787-.7-.674-.967-2.319-.006-2.898.662-.61 1.833-1.218 2.758-1.055 1.244.218 1.8 2.159 1.194 3.166-.17.257.162-.268 0 0zm-1.377-2.1c-1.108 0-3.52 1.527-1.529 2.356 1.428.595 3.302-2.356 1.529-2.356-.374 0 .518 0 0 0zm4.231-4.188c-.538 2.306-.612 4.645-.612 6.947 0 .731-.795.773-.853.111-.028-.324-.107-.637-.107-.954 0-.527-.008-1.042.051-1.565.158-1.409.267-2.834.476-4.237.073-.493-.067-1.728.387-2.05.66-.468.658 1.573.658 1.748-.094.401 0 0 0 0zm1.622-.112c-.066.422-.263 1.277-.708 1.463-1.025.429-.675-.658-.397-1.083.43-.651.242-1.411.557-2.047.14-.281.554-.036.625.189.149.472.058 1.016-.077 1.478-.018.112.102-.346 0 0zm3.687 6.679c-.538.543-1.807.896-2.523 1.006-.266.041-.511-.099-.757-.012-.345.091-.648-.646-.259-.74.534-.13 1.076-.244 1.604-.399 1.327-.392.233-.718-.517-1.133-.619-.342-.974-.535-1.167-1.212-.19-.796 2.604-1.128 3.047-1.161.711-.053 1.152.898.357 1.039-.551.098-1.428.113-1.9.423.193.508 3.155 1.06 2.115 2.189-.11.111.103-.111 0 0zm11.54-6.746c-1.255 0-2.871.471-4.163.754-.841.184-1.324.12-1.54 1.019-.186.769-.389 1.187.434 1.187 1.124 0 2.286.008 3.431-.042.351-.015.311.24.343.521-.236.22-.613.331-.909.426-.736.256-1.536.15-2.299.227-.819.083-1.224.049-1.577.733-.066.215-.548 1.467-.161 1.563.313.207 1.985-.354 2.367-.422.453-.081 1.705-.46 2.069-.158.575.122 1.079-.222 1.623.078.106.517-.033.814-.604.814-.707 0-1.641.276-2.37.388-1.039.157-2.068.396-3.098.606-.291.06-1.323-.189-1.323-.514 0-.613.34-1.303.467-1.906.054-.256.272-.763.15-.99-.447-.835.2-.767.381-1.478.089-.35.356-1.023.269-1.367.182-.238-1.099-.994-.246-1.408.801-.378 2.059-.338 2.946-.404.754-.056 2.366-.472 3.094-.206.236.087.985.237 1.125.421a.862.862 0 0 1-.409.158c.077 0 .111 0 0 0zm3.677 7.763c-1.073 0-.436-4.397-1.982-2.436-.215.271-.808 1.554-1.154 1.554-.815 0-.676-1.464-.501-1.922 0-.329.137-.615.255-.916.356 0 .37.38.671.38.415 0 1.099-.655 1.473-.854 1.19-.635 2.105 4.194 1.238 4.194-.025 0 .187 0 0 0zm6.585-5.674c.062.877.029 1.771-.017 2.647-.368.688-.401.491-1.198.401-1.038-.119-2.851-.138-3.539.817-.491.68 1.148 1.013 1.551.944.839-.141 1.768-.521 2.617-.521.84.602-2.521 1.541-3.009 1.541-1.309.137-2.671-1.269-1.819-2.569.956-1.537 3.223-1.102 4.684-1.352.022-.919.199-1.873.109-2.782-.076-.768-.146-1.789.061-2.522.216-.777.62.422.62.581 0 .935.015 1.881-.06 2.815.018.245.034-.425 0 0z"/></svg>