<svg xmlns="http://www.w3.org/2000/svg" xmlns:xlink="http://www.w3.org/1999/xlink" width="576.667" height="268.5"><path fill="#FFF" d="M134.296 210.073c-20.619 8.858-102.75-18.688-98.375-10.875 0 0 4.312 29.938 29.188 38.188 0 0 .25-6.188 3-4.5 0 0 2.416 9.77 15.771 10.666l3.791 5.709s1.125-4.938 3.375-4.875 5.938 7.125 5.562 20.938c0 0-.688 2.812 5.75.062s11.812-7.375 12.125-11.438l3.5 4.875s1.75-11.293 6.562-10.271 5.75 3.521 5.062 6.334c0 0 27.438.875 40.562-26.25.002 0-10.123-29.625-35.873-18.563z"/><path opacity=".1" fill="#232323" d="M68.546 233.22c-1.916-3.25-3.02 4.437-3.02 4.437-24.389-8.176-29.391-37-29.391-37l24.076 8.229c.001 0-3.415 11.418 8.335 24.334"/><path fill="#FFF" d="M87.046 12.552s1.166 5-6.5 6.167c0 0-23.004 7.224-34.252 21.528 0 0-12.748-6.527-28.164-2.944 0 0-4.584 10.333 2.916 27.333 0 0-17.783 18.76-16.58 46.942 0 0-2.92 6.433 2.08 16.808 0 0-1.625 11.75 1.75 17.625l2.375-1.75s34 11.75 88 13c0 0 78.266 5.236 116.32-12.507 0 0 10.93-32.118-.445-54.868 0 0-1.5-18.75-11.125-29.125 0 0 5.615-15.229 1.434-23.489 0 0-6.934-3.511-25.059 1.364 0 0-22.125-25.125-53.75-23.875 0 0-7.625 3-4.25-2.25s6.375-9 6.375-9-6.5 3.75-15.25 8.875c0 0-17.5 11.583-25.875.166z"/><path fill="#4C4B4C" d="M79.213 243.886c-.069 0-.14-.007-.211-.022-8.838-1.894-10.972-8.507-11.366-10.125-.251-.212-.371-.231-.373-.232-.329.262-.731 2.289-.736 4.153l-.004 1.386-1.313-.44c-24.669-8.27-30.008-37.483-30.059-37.777a1 1 0 0 1 1.97-.343c.048.277 5.013 27.329 27.461 35.775.138-1.744.591-4.036 1.993-4.615.586-.24 1.523-.286 2.678.868l.224.224.055.312c.051.282 1.368 7.033 9.891 8.859a1 1 0 0 1-.21 1.977z"/><path fill="#BAE6FB" d="M91.919 85.391s2.193-7.392 1.594-10.985c0 0 3.795-.399 9.385 19.365 0 0 1.996-23.758 25.354-19.166 0 0 15.711.715 21.332 15.53 0 0 6.02-4.15 3.824-13.533 0 0 18.367 12.178 20.164 39.729 0 0 1.396 9.583-3.395 18.567l-2.959 6.909s3.193 2.662 2.838 6.212c-.354 3.549-2.838 14.996-28.66 19.788-25.822 4.791-63.055 7.818-89.807-10.35 0 0-6.678-5.659 6.543-16.604 0 0-7.342-1.164-9.539-5.756 0 0 6.59 1.931 10.383-3.061 0 0-12.977-4.525-7.787-24.89 0 0 .799-16.97 22.162-27.551 0 0 10.381-4.192 16.969.799l1.599 4.997z"/><path fill="#4C4B4C" d="M108.71 172.738c-9.078 0-17.069-.844-23.638-1.947-18.669-3.135-32.905-9.634-35.391-13.857-3.427-5.825 2.958-12.599 6.173-15.479-6.851-1.818-9.332-8.34-9.444-8.644a1 1 0 0 1 1.877-.691c.105.284 2.698 7.013 9.944 7.737l2.529.253-2.024 1.539c-.108.082-10.827 8.326-7.33 14.271 1.585 2.694 13.542 9.464 33.997 12.899 16.869 2.832 43.27 3.932 73.288-6.895 1.107-.822 10.331-7.869 10.454-14.309.041-2.147-.942-3.971-3.005-5.575a1 1 0 1 1 1.228-1.578c2.56 1.99 3.83 4.411 3.775 7.194-.151 7.816-10.936 15.643-11.395 15.972l-.243.128c-18.794 6.8-36.197 8.982-50.795 8.982z"/><path fill="#6DCAF3" d="M138.374 213.499s-.9 3.728-2.928 9.052 29.5 17.836 45.262 4.525c0 0 6.307-9.317.227-28.218"/><path fill="#274E5E" d="M161.967 233.975c-9.879.001-19.704-3.284-24.506-6.688-3.182-2.255-3.359-4.014-2.949-5.092 1.978-5.194 2.882-8.895 2.891-8.932l1.943.47c-.037.155-.938 3.851-2.965 9.173-.13.341.195 1.303 2.236 2.749 7.767 5.506 29.34 10.728 41.326.757.628-1.057 5.539-10.151.039-27.247l1.904-.613c6.158 19.145-.082 28.688-.351 29.085l-.183.203c-5.292 4.471-12.352 6.135-19.385 6.135z"/><path opacity=".5" fill="#274E5E" d="M181.728 223.489s4.113-8.458-17.305-6.52-23.475 0-28.615 4.758c0 0 1.715-7.577 4.627-8.282s17.82-1.586 40.266-11.63c-.001 0 6.681 13.392 1.027 21.674z"/><path fill="#6DCAF3" d="M41.091 202.188c20.723 7.896 86.273 28.088 155.865-5.259 0 0 23.826-46.852 19.035-52.176 0 0-60.682 28.309-196.871 2.994 0 0-3.715-1.93-7.443-2.729-3.727-.798 4.525 35.405 10.648 35.14 0 .001 5.321 16.906 18.766 22.03z"/><path fill="#274E5E" d="M114.479 216.491h-.007c-33.636-.001-60.637-8.376-73.738-13.368-12.45-4.745-18.053-18.919-19.161-22.063-6.06-1.78-11.828-26.461-11.828-33.505 0-.878 0-3.548 1.814-3.548.107 0 .218.012.326.035 3.458.74 6.838 2.386 7.56 2.749 37.453 6.954 72.686 10.48 104.709 10.48h.014c61.832-.002 91.112-13.29 91.401-13.424l.67-.312.495.55c4.997 5.554-14.856 45.372-18.887 53.298l-.154.303-.306.146c-25.838 12.381-53.735 18.659-82.908 18.659zm-102.63-70.408c-.819 2.907 2.632 21.009 7.398 29.718 1.707 3.117 2.736 3.359 3.011 3.359h.733l.288.698c.052.165 5.343 16.508 18.168 21.396 12.973 4.943 39.71 13.236 73.025 13.237h.008c28.758.001 56.255-6.162 81.738-18.317 9.296-18.322 20.89-44.895 19.342-50.147-5.26 2.171-34.88 13.244-91.393 13.245h-.014c-32.188.001-67.588-3.546-105.217-10.54l-.278-.096c-.033-.019-3.389-1.748-6.809-2.553z"/><path fill="#6DCAF3" d="M156.116 155.697s1.076-4.575 4.303-5.511 22.916-3.038 33.176 3.497c10.258 6.535 35.898 61.243 30.051 80.211 0 0-21.375 21.557-38.305 12.42 0 0 7.615-53.531-29.225-90.617z"/><path fill="#274E5E" d="M194.492 249.571c-3.466 0-6.704-.8-9.626-2.377l-.613-.331.098-.689c.075-.53 7.106-53.48-28.943-89.771l-.392-.394.127-.54c.05-.211 1.253-5.157 4.998-6.242 1.601-.465 6.469-1.118 12.278-1.118 6.517 0 15.573.82 21.713 4.731 10.566 6.731 36.534 61.677 30.47 81.35l-.073.234-.173.175c-.607.611-15.017 14.972-29.864 14.972zm-8.076-3.827c2.47 1.213 5.183 1.827 8.076 1.827 13.169 0 26.592-12.585 28.27-14.21 5.52-19.057-20.132-72.736-29.704-78.834-5.734-3.652-14.389-4.419-20.639-4.419-5.552 0-10.276.619-11.722 1.038-2.029.589-3.087 3.16-3.454 4.269 34.016 34.674 29.889 83.847 29.173 90.329z"/><path opacity=".5" fill="#274E5E" d="M22.991 181.623s34.688 12.139 74.938 10.652c0 0-37.633 17.589-74.938-10.652zm136.707-21.019s11.357 16.577 8.111 22.103c0 0-1.326 4.676-5.9 6.164 0 0 12.244-1.7 16.227 14.877l2.951-.851c0-.001-5.459-24.867-21.389-42.293z"/><path fill="#6DCAF3" d="M19.347 177.857s16.57 16.308 78.662 15.604"/><path fill="#274E5E" d="M94.09 194.483c-58.594 0-74.771-15.25-75.444-15.913l1.4-1.428c.165.159 17.194 16.012 77.951 15.318l.023 2c-1.328.016-2.643.023-3.93.023zm54.746-2.322l-.326-1.973c11.729-1.934 20.803-4.508 26.971-7.649l.908 1.781c-6.352 3.237-15.621 5.874-27.553 7.841z"/><circle fill="#274E5E" cx="186.225" cy="252.582" r="2.529"/><circle fill="#274E5E" cx="134.067" cy="230.072" r="2.529"/><circle fill="#274E5E" cx="142.636" cy="235.659" r="2.529"/><circle fill="#274E5E" cx="153.072" cy="238.325" r="2.528"/><circle fill="#274E5E" cx="162.691" cy="238.975" r="2.528"/><circle fill="#274E5E" cx="172.104" cy="237.688" r="2.528"/><circle fill="#274E5E" cx="180.418" cy="233.933" r="2.528"/><circle fill="#274E5E" cx="195.266" cy="254.275" r="2.529"/><circle fill="#274E5E" cx="204.309" cy="252.763" r="2.529"/><circle fill="#274E5E" cx="212.553" cy="249.283" r="2.529"/><circle fill="#274E5E" cx="220.197" cy="245.29" r="2.529"/><circle fill="#274E5E" cx="226.443" cy="239.1" r="2.529"/><path fill="#4C4B4C" d="M98.465 83.548c-.458 0-.872-.317-.976-.783-1.461-6.577-5.316-8.049-5.355-8.063a1 1 0 1 1 .683-1.879c.2.072 4.928 1.873 6.625 9.509a1.001 1.001 0 0 1-.977 1.216zm-39.736 49.918a.987.987 0 0 1-.408-.088c-4.73-2.123-7.878-5.503-9.356-10.044-3.86-11.853 4.928-27.442 5.304-28.101C65.905 77.786 78.054 76.992 84.27 78.069c2.582.447 5.48 1.539 6.344 2.603.152.165 2.144 2.391 1.399 5.219a1 1 0 0 1-1.934-.51c.471-1.789-.916-3.332-.931-3.347l-.182-.205c-.727-.532-4.565-2.535-10.332-1.978-5.708.554-14.273 3.854-22.667 16.433-.052.095-8.688 15.429-5.102 26.436 1.298 3.979 4.081 6.952 8.272 8.834a1 1 0 0 1-.408 1.912zm44.129-35.942h-.021a1 1 0 0 1-.979-1.021c.018-.816.581-20.02 14.803-22.528 12.166-2.146 27.061.563 33.241 14.321 1.48-1.918 3.945-6.385 2.3-13.512a1 1 0 0 1 1.949-.449c2.503 10.845-3.65 16.326-3.913 16.555l-1.079.935-.51-1.333c-5.319-13.904-19.831-16.631-31.641-14.548-12.621 2.228-13.146 20.417-13.15 20.601a1 1 0 0 1-1 .979zm66.292 40.734a1 1 0 0 1-.904-1.425c14.698-31.334-11.896-57.298-12.167-57.557a1 1 0 1 1 1.383-1.445c.28.269 27.896 27.231 12.595 59.852-.17.362-.531.575-.907.575z"/><path fill="#191919" d="M72.735 129.707s10.98 9.981 19.965 4.99c0 0 .998-22.16-9.383-20.763 0 .001-6.988.001-10.582 15.773z"/><path fill="#FFF" d="M87.169 119.537s-1.85-1.423-1.85.712c0 2.134 1.279 9.392 3.271 7.399s-.71-7.257-1.421-8.111z"/><path fill="#191919" d="M151.558 129.707s-10.98 9.981-19.965 4.99c0 0-.998-22.16 9.383-20.763 0 .001 6.988.001 10.582 15.773zm-39.37 10.851s7.738-.383 9.666 1.553c1.926 1.935-1.111 4.887-5.684 6.052 0 0-2.82.696-2.992 5.352 0 0-.082 2.262-.879 2.232h-.305c-.799.029-.881-2.232-.881-2.232-.17-4.655-2.992-5.352-2.992-5.352-4.572-1.165-7.611-4.117-5.684-6.052 1.928-1.936 9.668-1.553 9.668-1.553"/><path d="M66.147 133.644s-3.461 1.153-3.461 2.662c0 1.508 1.066-.089 2.396-.71 1.333-.621 2.841-1.776 1.065-1.952zm3.639 2.927s-4.17 1.242-4.082 3.018c.09 1.774.711 1.42 1.686.532.976-.888 4.793-3.017 2.396-3.55zm88.36-2.927s3.461 1.153 3.461 2.662c0 1.508-1.066-.089-2.396-.71-1.333-.621-2.841-1.776-1.065-1.952zm-3.639 2.927s4.17 1.242 4.082 3.018c-.09 1.774-.711 1.42-1.686.532-.976-.888-4.793-3.017-2.396-3.55z" fill="#274E5E"/><path opacity=".3" fill="#274E5E" d="M111.731 137.826c-14.375-.6-20.299 5.39-15.107-.999s14.975-6.987 14.975-6.987h1.098s9.781.599 14.973 6.987c5.189 6.389-.732.399-15.107.999h-.832z"/><path fill="#FFF" d="M144.667 119.537s-1.852-1.423-1.852.712c0 2.134 1.281 9.392 3.273 7.399s-.71-7.257-1.421-8.111zM5.712 128.886s.334 9.833 1 12.833c0 0 1.668-2 2.5-1.833l2.793 4.359s7.986 14.376 23.961 15.974c0 0-5.99-6.789-.799-5.191s13.979 4.393 17.971 3.194c0 0-3.791-1.197-2.992-7.188"/><path opacity=".13" fill="#232323" d="M57.921 44.011s-9.562 4.625-10.625 19.688l-1.375 5.062"/><path opacity=".1" fill="#232323" d="M84.771 17.522c-24.912 5.661-47.77 29.083-47.77 29.083C2.657 79.752 2.925 105.204 3.989 113.988c.412 3.396.74 7.825.988 11.979.072 1.229 1.174 2.434 1.289 3.581.508 5.007.297 10.914.297 10.914.68-.641 1.154 5.249 1.154 5.249l5.789.354 2.93 4.525C30.944 163.501 36 160.04 36 160.04c-4.125-6.123-.266-4.26-.266-4.26 20.232 5.99 15.973 2.529 15.973 2.529-30.33-18.566-31.307-47.168-25.133-69.905 0 0 3.783-11.458 19.346-19.646 0 0 .25.188 1.5-5.562s1-12.25 9.438-18.75c0 0 .75-.438 1.438-.688 0 0 4.562-17.062 26.625-25.5l-.15-.736"/><path fill="#4C4B4C" d="M38.399 161.467l-2.533-.253c-14.936-1.494-22.979-13.57-24.485-16.057-.829.068-1.913 1.305-2.332 1.942l-.953 1.453L7.317 147c-1.386-2.771-1.575-4.664-1.602-5.156-.603-2.933-.125-11.095-.02-12.745-3.849-7.56-2.534-15.986-2.253-17.5-2.451-10.942 8.019-51.78 42.142-72.094 1.271-1.878 10.864-14.805 38.803-22.913.387-.219 2.223-1.345 2.169-2.896l-.111-3.167 1.908 2.529c.175.227 4.46 5.596 14.557 2.405 6.687-2.115 10.465-4.418 14.84-7.084 2.734-1.666 5.562-3.389 9.409-5.273L131.46 1l-3.099 3.651c-2.042 2.406-7.214 9.366-6.627 12.636.097.539.355.91.815 1.168.481.271.652.881.382 1.362-.271.48-.882.65-1.362.382-.979-.551-1.603-1.436-1.804-2.56-.538-3.005 2.071-7.495 4.286-10.655-1.924 1.068-3.609 2.096-5.261 3.103-4.299 2.62-8.36 5.095-15.277 7.282-8.275 2.619-13.204.008-15.399-1.769-.883 1.771-2.784 2.759-2.891 2.813l-.175.069c-28.895 8.361-37.82 22.158-37.906 22.296l-.13.206-.209.123c-33.678 19.914-43.926 59.98-41.367 70.229l.056.223-.047.225c-.019.09-1.83 9.064 2.152 16.637l.132.251-.019.282c-.183 2.695-.542 10.204-.021 12.549l.023.217c0 .007.027 1.102.753 2.951.922-.927 2.32-1.896 3.863-1.371l.363.124.188.336c.073.132 7.088 12.446 20.708 15.101-1.424-1.985-1.854-3.437-1.278-4.327.769-1.192 2.564-.643 3.152-.461l.543.168c4.091 1.261 10.451 3.222 14.56 3.277-.999-1.222-1.855-3.27-1.409-6.614a1 1 0 0 1 1.982.264c-.68 5.099 2.272 6.093 2.302 6.103l3.097.978-3.11.934c-4.14 1.242-12.488-1.327-18.01-3.029l-.542-.167a5.052 5.052 0 0 0-.743-.179c.298.791 1.391 2.396 2.586 3.753l1.682 1.906z"/><defs><path id="a" d="M55.765 44.259s-22.359-12.577-37.932-6.987c0 0-5.99 13.576 8.982 38.132 0-.001 24.756-9.184 28.95-31.145z"/></defs><use xlink:href="#a" overflow="visible" fill="#6DCAF3"/><clipPath id="b"><use xlink:href="#a" overflow="visible"/></clipPath><path opacity=".3" clip-path="url(#b)" fill="#274E5E" d="M17.833 37.271c-5.32 13.66 8.982 38.132 8.982 38.132l14.172-9.199c-12.779-1.863-22.096-28.75-22.096-28.75l-1.058-.183z"/><use xlink:href="#a" overflow="visible" fill="none" stroke="#274E5E" stroke-width="2" stroke-miterlimit="10"/><path fill="#FFF" d="M57.56 44.174s-9.316 5.059-10.381 21.297c0 0 2.662-3.993 6.389-5.856"/><path fill="#4C4B4C" d="M45.937 69.138l.244-3.732c1.088-16.598 10.502-21.893 10.901-22.11a1 1 0 0 1 .958 1.755c-.082.045-7.593 4.337-9.515 17.205 1.171-1.229 2.753-2.615 4.595-3.536a1 1 0 0 1 .895 1.789c-3.449 1.725-5.979 5.479-6.004 5.517l-2.074 3.112z"/><path fill="#BAE6FB" d="M104.714 146.802s6.582 3.416 14.75.5c0 0-1.418 11.834-8.834 9.167s-7.666-8.501-5.916-9.667z"/><path fill="#FFF" d="M205.093 145.482c2.424 2.758 1.58 5.618 1.58 5.618 5.924-.937 9.082-8.896 9.082-8.896l1.916-7.068s-20.408 1.443-12.578 10.346z"/><path fill="#4C4B4C" d="M205.054 152.369l.697-1.657c.123-.299 1.148-2.996-1.168-4.369a1 1 0 0 1 1.019-1.721c2.173 1.288 2.603 3.38 2.437 5.057 4.345-1.806 6.76-7.776 6.786-7.844l1.31-4.395c.676-2.826 1.193-5.418 1.523-7.652 3.764-25.51-3.839-40.005-3.916-40.147l-.103-.19-.016-.217c-2.052-29.798-31.472-46.563-31.769-46.729l-.191-.106-.13-.178c-15.935-21.865-46.829-26.735-52.252-26.788l-.155-.001c-2.474 0-3.129.604-3.272.794a.543.543 0 0 0-.109.263 1 1 0 1 1-1.922.552c-.14-.485-.108-1.307.439-2.026.817-1.075 2.534-1.638 5.039-1.582 5.573.055 37.265 5.047 53.724 27.439 2.619 1.54 30.427 18.581 32.579 48.016.971 1.908 7.706 16.292 4.032 41.193-.339 2.293-.867 4.943-1.571 7.88l-1.353 4.53c-.166.43-3.471 8.584-9.884 9.598l-1.774.28z"/><defs><path id="c" d="M166.921 44.259s22.361-12.577 37.934-6.987c0 0 5.988 13.576-8.984 38.132-.001-.001-24.757-9.184-28.95-31.145z"/></defs><use xlink:href="#c" overflow="visible" fill="#6DCAF3"/><clipPath id="d"><use xlink:href="#c" overflow="visible"/></clipPath><path opacity=".3" clip-path="url(#d)" fill="#274E5E" d="M201.108 36.922s-25.557 12.245-21.562 27.951c0 0-10.076-6.888-12.625-20.614 0 0 25.935-11.863 34.187-7.337z"/><use xlink:href="#c" overflow="visible" fill="none" stroke="#274E5E" stroke-width="2" stroke-miterlimit="10"/><path fill="#FFF" d="M165.29 42.474s7.68 5.015 10.326 14.347c0 0-5.945-3.763-7.307-.294"/><path fill="#4C4B4C" d="M177.29 59.059l-2.208-1.393c-1.287-.812-3.81-1.943-5.102-1.518-.355.117-.584.346-.74.743a1 1 0 0 1-1.861-.731c.372-.95 1.058-1.611 1.98-1.914 1.403-.457 3.141.001 4.513.563-2.981-7.397-9.062-11.456-9.13-11.5a1 1 0 0 1 1.095-1.674c.326.213 8.024 5.329 10.741 14.911l.712 2.513z"/><path opacity=".13" fill="#232323" d="M172.921 58.136s-1.875-4.25-3.875-2.5-2.375 7.625 27.125 20.625c0 0-17.75-9.75-23.25-18.125z"/><path fill="#4C4B4C" d="M97.606 267.27a9.712 9.712 0 0 1-1.206-.062l-.891-.131.037-.899c.18-4.336-.021-16.312-3.069-19.613-.401-.436-1.146-1.134-1.704-.981-.857.253-1.659 2.373-1.908 3.807l-.353 2.027-1.376-1.529c-9.151-10.168-9.257-24.722-9.257-25.336a1 1 0 0 1 .999-1h.001a1 1 0 0 1 1 .999c0 .137.104 13.036 7.525 22.546.481-1.377 1.345-3.002 2.803-3.432 1.207-.36 2.466.162 3.738 1.542 3.683 3.989 3.702 16.465 3.627 20.083 2.708.062 10.812-.724 16.074-11.51l.726-1.488 3.401 4.639 1.04-3.993c.302-2.042 1.095-3.545 2.356-4.468 1.642-1.202 3.463-.915 3.539-.904 2.112.233 3.762 1.054 4.849 2.432.955 1.21 1.245 2.582 1.319 3.526l2.64-.075c.132-.008 16.31-1.08 25.287-10.984a1 1 0 0 1 1.482 1.344c-9.534 10.518-25.987 11.598-26.683 11.639l-4.861.14.145-1.157c.001-.013.193-1.822-.911-3.208-.744-.933-1.936-1.497-3.541-1.675-.057-.009-1.153-.158-2.105.554-.81.605-1.329 1.675-1.544 3.178l-.022.11-2.114 8.119-3.959-5.4c-5.635 10.151-13.992 11.16-17.084 11.16z"/><path d="M239.856 96.44h2.422l12.54 46.952 12.683-34.769h2.279l12.754 34.769 12.468-46.952h2.423l-13.68 51.228h-2.423l-12.682-35.695-12.683 35.695h-2.422L239.856 96.44zm64.622 16.815c2.897-2.28 6.77-3.42 11.614-3.42s8.738 1.14 11.685 3.42c3.182 2.471 4.773 6.081 4.773 10.83 0 4.798-1.592 8.432-4.773 10.9-2.946 2.28-6.84 3.42-11.685 3.42s-8.717-1.14-11.614-3.42c-3.183-2.469-4.773-6.103-4.773-10.9-.001-4.749 1.59-8.359 4.773-10.83zm1.497 20.377c2.469 1.948 5.842 2.921 10.117 2.921 9.451 0 14.178-4.155 14.178-12.468 0-4.18-1.33-7.339-3.989-9.477-2.471-1.946-5.867-2.921-10.188-2.921-9.405 0-14.107 4.133-14.107 12.397-.002 4.228 1.327 7.41 3.989 9.548zm24.223 9.405v2.208h-28.143v-2.208h28.143zm13.111-29.782c2.897-2.28 6.77-3.42 11.614-3.42s8.738 1.14 11.685 3.42c3.182 2.471 4.773 6.081 4.773 10.83 0 4.798-1.592 8.432-4.773 10.9-2.946 2.28-6.84 3.42-11.685 3.42s-8.717-1.14-11.614-3.42c-3.183-2.469-4.773-6.103-4.773-10.9-.001-4.749 1.59-8.359 4.773-10.83zm1.497 20.377c2.469 1.948 5.842 2.921 10.117 2.921 9.451 0 14.178-4.155 14.178-12.468 0-4.18-1.33-7.339-3.989-9.477-2.471-1.946-5.867-2.921-10.188-2.921-9.405 0-14.107 4.133-14.107 12.397-.002 4.228 1.328 7.41 3.989 9.548zm24.223 9.405v2.208h-28.143v-2.208h28.143zm10.474-46.525h2.209v51.156h-2.209V96.512zm26.86 43.176c-4.846 0-8.669-1.318-11.472-3.955-2.803-2.636-4.203-6.328-4.203-11.079 0-4.797 1.425-8.524 4.274-11.186 2.755-2.611 6.555-3.919 11.4-3.919 4.749 0 8.454 1.165 11.114 3.491 2.944 2.519 4.418 6.081 4.418 10.688v.997h-28.856v.428c0 4.086 1.235 7.221 3.705 9.405 2.327 2.137 5.533 3.206 9.619 3.206 6.079 0 10.117-2.066 12.112-6.199l1.923.784c-.95 2.043-2.446 3.658-4.488 4.845-2.66 1.663-5.842 2.494-9.546 2.494zm13.964 3.349v2.208h-28.143v-2.208h28.143zm-.854-19.95c0-3.704-1.188-6.602-3.562-8.692-2.328-1.946-5.368-2.921-9.12-2.921-8.646 0-13.205 3.872-13.68 11.613h26.362zm11.114-12.397h2.28v6.056c2.326-4.56 6.483-6.84 12.469-6.84 8.453 0 12.682 4.417 12.682 13.252v24.51h-2.28v-23.797c0-3.942-.712-6.84-2.137-8.692-1.663-2.138-4.395-3.206-8.194-3.206-6.981 0-11.043 3.159-12.183 9.476a41.03 41.03 0 0 0-.25 2.672 57.304 57.304 0 0 0-.106 3.741v19.807h-2.28V110.69zm68.398 14.321l-17.599-28.57h2.707l16.174 26.148 15.96-26.148h2.707l-17.599 28.713v22.515h-2.351v-22.658zm33.06 14.677c-4.846 0-8.669-1.318-11.472-3.955-2.803-2.636-4.203-6.328-4.203-11.079 0-4.797 1.425-8.524 4.274-11.186 2.755-2.611 6.555-3.919 11.4-3.919 4.749 0 8.454 1.165 11.114 3.491 2.944 2.519 4.418 6.081 4.418 10.688v.997H518.72v.428c0 4.086 1.235 7.221 3.705 9.405 2.327 2.137 5.533 3.206 9.619 3.206 6.079 0 10.117-2.066 12.112-6.199l1.923.784c-.95 2.043-2.446 3.658-4.488 4.845-2.66 1.663-5.842 2.494-9.546 2.494zm13.964 3.349v2.208h-28.143v-2.208h28.143zm-.855-19.95c0-3.704-1.188-6.602-3.562-8.692-2.328-1.946-5.368-2.921-9.12-2.921-8.646 0-13.205 3.872-13.68 11.613h26.362zm11.827-22.514v10.117h7.409v1.994h-7.409v34.983h-2.28v-47.095h2.28zm17.527 42.464v2.208h-6.911v-2.208h6.911zm-3.634-47.167c1.045 0 1.567 1.117 1.567 3.349 0 2.28-.522 3.42-1.567 3.42-.997 0-1.496-1.14-1.496-3.42 0-2.232.499-3.349 1.496-3.349zm-1.068 14.82h2.209v27.572h-2.209V110.69z" fill="#191919"/><path d="M259.723 171.092h1.345l9.663 25.448h-1.168l-3.292-8.672h-11.856l-3.327 8.672h-1.168l9.803-25.448zm6.123 15.715l-5.45-14.334-5.557 14.334h11.007zm33.021 7.928c-1.746 1.534-4.035 2.3-6.866 2.3-3.634 0-6.371-1.332-8.211-3.999-1.581-2.288-2.372-5.345-2.372-9.167s.814-6.925 2.442-9.309c1.864-2.689 4.648-4.035 8.353-4.035 2.525 0 4.66.696 6.406 2.089 1.251.991 2.136 2.206 2.655 3.646l-1.098.566c-1.156-3.492-3.882-5.238-8.176-5.238-3.186 0-5.604 1.31-7.256 3.929-1.393 2.218-2.088 5.002-2.088 8.353 0 3.375.673 6.136 2.018 8.282 1.604 2.596 3.987 3.894 7.149 3.894 2.548 0 4.612-.685 6.193-2.053 1.227-1.062 2.041-2.431 2.442-4.106l1.026.531c-.446 1.722-1.319 3.161-2.617 4.317zm7.291-16.564h1.133v3.044c.943-2.006 2.973-2.996 6.087-2.974l-.708.991c-.873 0-1.498.071-1.875.213-.803.236-1.629.838-2.478 1.805-.686.803-1.026 1.829-1.026 3.079v12.211h-1.133v-18.369zm10.335 2.513c1.416-1.935 3.469-2.902 6.158-2.902 2.69 0 4.754.968 6.194 2.902 1.273 1.699 1.911 3.941 1.911 6.725 0 2.785-.638 5.038-1.911 6.761-1.464 1.888-3.528 2.831-6.194 2.831-2.689 0-4.742-.943-6.158-2.831-1.274-1.723-1.911-3.976-1.911-6.761 0-2.784.637-5.026 1.911-6.725zm.814 12.706c1.227 1.771 3.009 2.655 5.345 2.655s4.129-.885 5.38-2.655c1.062-1.51 1.593-3.504 1.593-5.981 0-2.453-.531-4.447-1.593-5.981-1.251-1.77-3.044-2.654-5.38-2.654-2.359 0-4.141.885-5.345 2.654-1.062 1.534-1.593 3.528-1.593 5.981 0 2.477.531 4.471 1.593 5.981zm29.518 1.947c-1.322 1.109-2.985 1.663-4.991 1.663-2.643 0-4.672-.967-6.087-2.902-1.251-1.746-1.876-3.976-1.876-6.689 0-2.783.637-5.025 1.911-6.725 1.416-1.935 3.469-2.902 6.158-2.902 3.327 0 5.509 1.334 6.548 4l-.956.637c-.307-.896-.873-1.687-1.698-2.371-1.062-.85-2.36-1.274-3.894-1.274-2.359 0-4.141.885-5.345 2.654-1.062 1.534-1.593 3.528-1.593 5.981 0 2.478.531 4.472 1.593 5.981 1.227 1.771 3.009 2.655 5.345 2.655 1.439 0 2.695-.396 3.77-1.187 1.073-.79 1.787-1.894 2.142-3.309l.955.566c-.402 1.323-1.062 2.396-1.982 3.222zm6.3-24.209h1.133v10.052c1.155-2.266 3.221-3.398 6.193-3.398 4.199 0 6.3 2.194 6.3 6.583v12.176h-1.133V184.72c0-1.958-.354-3.397-1.062-4.318-.826-1.062-2.183-1.593-4.07-1.593-3.469 0-5.485 1.569-6.052 4.708-.048.354-.089.796-.124 1.327-.035.53-.053 1.15-.053 1.857v9.84h-1.133v-25.413zM378.431 197c-2.619 0-4.613-.967-5.981-2.902-1.203-1.722-1.806-3.952-1.806-6.689 0-2.736.603-4.955 1.806-6.653 1.368-1.982 3.362-2.974 5.981-2.974 2.571 0 4.53.885 5.875 2.654 1.227 1.582 1.841 3.705 1.841 6.371v.673h-14.335v.283c0 2.265.531 4.153 1.593 5.663 1.204 1.746 2.879 2.619 5.026 2.619 2.973 0 4.99-1.393 6.052-4.177l.921.495c-.473 1.251-1.216 2.277-2.23 3.079-1.322 1.039-2.903 1.558-4.743 1.558zm6.512-10.547c0-2.147-.508-3.917-1.522-5.31-1.133-1.58-2.726-2.371-4.778-2.371-2.123 0-3.787.768-4.99 2.301-1.062 1.393-1.663 3.186-1.805 5.38h13.095zm5.486-13.308v5.026h3.681v.991h-3.681v17.378h-1.133v-23.396h1.133zm32.809 11.927c-.024 2.809-.59 5.156-1.699 7.044l3.575 4.424h-1.451l-2.797-3.397c-2.194 2.713-4.742 4.07-7.645 4.07-2.289 0-4.153-.673-5.592-2.018-1.534-1.416-2.277-3.244-2.23-5.486.095-3.987 2.655-6.913 7.681-8.777a1.94 1.94 0 0 1-.46.07c-.991 0-1.924-.637-2.796-1.911-.779-1.062-1.168-2.053-1.168-2.973 0-1.628.495-2.891 1.486-3.787.967-.826 2.171-1.239 3.61-1.239 1.486 0 2.672.425 3.557 1.274s1.327 2.018 1.327 3.504c0 2.761-1.711 4.861-5.132 6.3-2.266.968-3.905 1.994-4.92 3.08-1.345 1.392-2.018 2.866-2.018 4.424 0 1.864.59 3.422 1.771 4.672 1.203 1.228 2.725 1.841 4.565 1.841 1.533 0 2.996-.425 4.389-1.274 1.58-.92 2.772-2.159 3.574-3.717.85-1.58 1.274-3.621 1.274-6.123h1.099zm-6.972-6.335c.85-.873 1.274-1.828 1.274-2.867 0-1.155-.366-2.076-1.098-2.761-.731-.684-1.676-1.026-2.831-1.026-1.062 0-1.953.325-2.673.974s-1.079 1.504-1.079 2.565c0 .944.33 1.864.991 2.761.778 1.086 1.722 1.629 2.831 1.629.118 0 .295-.023.531-.071.638-.024 1.322-.425 2.054-1.204zm26.721 6.548l-8.742-14.193h1.345l8.035 12.99 7.928-12.99h1.345l-8.742 14.264v11.185h-1.168v-11.256zM459.445 197c-2.667 0-4.731-.943-6.194-2.831-1.273-1.723-1.911-3.976-1.911-6.761 0-2.808.638-5.061 1.911-6.76 1.416-1.911 3.48-2.867 6.194-2.867 3.421 0 5.733 1.534 6.937 4.602v-4.212h1.098v18.369h-1.098v-3.964c-1.18 2.949-3.492 4.424-6.937 4.424zm-5.38-3.61c1.227 1.771 3.02 2.655 5.38 2.655 2.359 0 4.141-.885 5.344-2.655 1.062-1.51 1.593-3.504 1.593-5.981 0-2.453-.53-4.447-1.593-5.981-1.203-1.77-2.984-2.654-5.344-2.654-2.36 0-4.142.885-5.345 2.654-1.086 1.511-1.628 3.504-1.628 5.981s.532 4.471 1.593 5.981zm18.334-15.219h1.133v3.044c.943-2.006 2.973-2.996 6.087-2.974l-.708.991c-.873 0-1.498.071-1.875.213-.803.236-1.629.838-2.478 1.805-.686.803-1.026 1.829-1.026 3.079v12.211h-1.133v-18.369zm9.308 0h1.133v3.009c1.155-2.266 3.221-3.398 6.193-3.398 4.199 0 6.3 2.194 6.3 6.583v12.176H494.2V184.72c0-1.958-.354-3.397-1.062-4.318-.826-1.062-2.183-1.593-4.07-1.593-3.469 0-5.485 1.569-6.052 4.708-.048.354-.089.796-.124 1.327-.035.53-.053 1.15-.053 1.857v9.84h-1.133v-18.37zm28.103-7.079h6.973c3.161 0 5.355.366 6.583 1.098 1.816 1.062 2.726 2.796 2.726 5.203 0 2.854-1.451 4.79-4.354 5.804 3.774.732 5.663 2.915 5.663 6.548 0 2.502-.968 4.354-2.902 5.557-1.369.827-3.682 1.239-6.938 1.239h-7.751v-25.449zm7.114 11.751c5.309 0 7.963-1.841 7.963-5.521 0-2.146-.861-3.61-2.583-4.389-1.133-.519-2.95-.778-5.451-.778h-5.84v10.688h5.911zm.388 12.636c2.784 0 4.695-.213 5.734-.638 2.076-.849 3.114-2.619 3.114-5.309 0-2.312-.955-3.917-2.867-4.813-1.345-.637-3.326-.956-5.945-.956h-6.336v11.716h6.3zm14.016-24.351h1.098v25.412h-1.098v-25.412zm7.114 9.556c1.416-1.935 3.469-2.902 6.158-2.902 2.69 0 4.754.968 6.194 2.902 1.273 1.699 1.911 3.941 1.911 6.725 0 2.785-.638 5.038-1.911 6.761-1.464 1.888-3.528 2.831-6.194 2.831-2.689 0-4.742-.943-6.158-2.831-1.274-1.723-1.911-3.976-1.911-6.761 0-2.784.637-5.026 1.911-6.725zm.814 12.706c1.227 1.771 3.009 2.655 5.345 2.655s4.129-.885 5.38-2.655c1.062-1.51 1.593-3.504 1.593-5.981 0-2.453-.531-4.447-1.593-5.981-1.251-1.77-3.044-2.654-5.38-2.654-2.359 0-4.141.885-5.345 2.654-1.062 1.534-1.593 3.528-1.593 5.981 0 2.477.531 4.471 1.593 5.981zm24.669 3.645c-2.689 0-4.742-.955-6.158-2.866-1.251-1.746-1.876-4-1.876-6.761 0-2.808.638-5.061 1.911-6.76 1.416-1.911 3.48-2.867 6.194-2.867 1.58 0 2.996.378 4.247 1.133 1.25.756 2.146 1.876 2.689 3.362v-4.105h1.098v17.378c0 2.312-.39 4.035-1.168 5.168-1.464 2.123-3.917 3.186-7.362 3.186-1.888 0-3.457-.414-4.707-1.239-1.393-.944-2.112-2.336-2.159-4.177h1.062c.117 1.581.79 2.737 2.017 3.469 1.062.638 2.419.956 4.07.956 3.067 0 5.18-1.039 6.336-3.115.542-.968.813-2.737.813-5.309v-1.876c-1.273 2.95-3.609 4.423-7.007 4.423zm5.415-15.608c-1.203-1.77-2.984-2.654-5.344-2.654-2.36 0-4.142.885-5.345 2.654-1.086 1.511-1.628 3.504-1.628 5.981s.531 4.472 1.593 5.981c1.227 1.771 3.02 2.655 5.38 2.655 2.359 0 4.141-.885 5.344-2.655 1.062-1.51 1.593-3.504 1.593-5.981 0-2.453-.531-4.447-1.593-5.981z" fill="#4C4B4C"/></svg>