<?xml version="1.0" encoding="utf-8"?>
<!DOCTYPE svg PUBLIC "-//W3C//DTD SVG 1.1//EN" "http://www.w3.org/Graphics/SVG/1.1/DTD/svg11.dtd">
<svg version="1.1" id="Layer_1" xmlns="http://www.w3.org/2000/svg" xmlns:xlink="http://www.w3.org/1999/xlink" x="0px" y="0px"
	 width="89.865px" height="48.648px" viewBox="0 0 89.865 48.648" enable-background="new 0 0 89.865 48.648" xml:space="preserve">
<path fill="#EDEDEE" d="M44.204,18.266c0-1.395-0.127-2.815,0.215-4.188c0.312-1.214,1.361-1.948,2.138-2.85
	c1.539-1.816,4.611-3.212,6.903-3.742c5.689-1.336,10.99,1.083,12.229,7.001c2.02-0.985,4.885-1.731,6.893-0.071
	c2.509,2.057,2.593,4.859,2.551,7.844c5.154-0.289,8.993,4.606,7.803,9.491c-0.2,0.794-0.573,1.829-1.422,2.141
	c-0.979,0.361-0.228,2.779-0.425,3.79c-0.463,2.262-3.557,3.477-5.66,2.875c0.066,2.791-2.401,4.463-4.945,4.729
	c-2.274,0.24-6.004-2.43-5.215-5.018c-2.43,1.842-7.682,4.2-10.527,1.817c-0.708-0.603-1.498,0.397-2.237,0.818
	c-1.053,0.602-2.196,0.624-3.375,0.624c-0.943-0.022-1.785-0.022-2.536-0.672c-1.041-0.914-0.892-1.3-2.251-0.482
	c-3.351,1.997-8.415,3.898-12.354,2.576c-1.462-0.494-3.032-2.312-3.406-3.803c-0.305-1.25-4.215,0.746-5.383,0.65
	c-1.372-0.122-3.146-0.734-3.645-2.118c-0.252-0.673-2.021-0.313-2.538-0.313c-0.969,0.013-1.679-0.456-2.359-1.094
	c-0.534-0.518-1.028-1.106-1.346-1.793c-0.144-0.289-0.228-0.602-0.258-0.938c-0.044-0.769-0.561-0.528-1.283-0.696
	c-1.755-0.41-4.144-2.312-4.973-3.924c-0.759-1.49-0.982-3.318-0.754-4.955c0.302-2.202,1.732-2.768,3.266-4.091
	c1.891-1.611,4.693-2.309,7.051-2.983c2.689-0.77,4.265,0.529,6.496,1.708c0.18-1.179,0.026-2.599,1.517-2.898
	c-2.087-1.89-1.179-5.462,0.456-7.292c2.095-2.346,5.324-3.452,8.41-3.452c3.049,0.012,6.459,0.517,8.191,3.2
	c0.76,1.179,0.916,2.598,1.192,3.934c0.18,0.879,1.017,2.683,1.662,3.308"/>
<g>
	<path fill-rule="evenodd" clip-rule="evenodd" d="M52.029,5.61c0.042-0.312,0.59-0.336,0.614-0.686
		c0.019-0.348-0.357-0.288-0.362-0.686c0.307-0.264,1.204-0.3,1.587-0.071c0.085,0.24-0.401,0.215-0.323,0.577
		c0.158,0.169,0.521,0.12,0.648-0.036c0.151-0.204-0.042-0.349,0.037-0.541c0.318-0.132,0.535-0.241,0.829-0.265
		c0.379-0.012,0.736,0.216,1.085,0.288c0.56,0.132,1.232-0.023,1.839,0.048c0.98,0.109,1.895,0.65,2.816,1.011
		c0.956,0.373,1.793,0.818,2.418,1.372c0.98,0.853,2.037,1.708,2.459,3.285c0.132,0.492,0.211,1.238,0.535,1.334
		c0.338,0.108,0.934-0.289,1.269-0.396c0.639-0.205,1.427-0.397,2.347-0.324c0.397,0.023,0.824,0.143,1.229,0.216
		c0.408,0.072,0.858,0.096,1.227,0.216c0.277,0.096,0.575,0.336,0.901,0.542c0.319,0.204,0.679,0.301,0.902,0.506
		c0.283,0.252,0.909,1.202,1.084,1.624c0.19,0.456,0.209,1.154,0.325,1.732c0.162,0.793,0.529,1.42,0.36,2.347
		c-0.055,0.288-0.416,0.925-0.938,0.757c-0.379-0.121-0.247-0.841-0.291-1.299c-0.167-1.744-1.07-3.2-2.236-4.151
		c-0.614-0.493-1.233-0.95-2.166-1.045c-1.396-0.157-2.49,0.18-3.211,0.686c-0.362,0.252-0.734,0.938-1.234,0.938
		c-0.733,0-0.571-0.878-0.612-1.588c-0.108-1.961-0.95-3.549-1.986-4.657c-1.112-1.191-3.398-1.732-5.521-2.02
		C57.104,5.25,56.492,5.25,55.89,5.25c-0.757,0-1.443,0-2.056,0.073C53.237,5.394,52.746,5.671,52.029,5.61z"/>
	<path fill-rule="evenodd" clip-rule="evenodd" d="M51.198,4.407c-0.096,0.313-0.239,0.723-0.512,0.771
		c-0.287,0.048-0.517-0.276-0.787-0.361C50.05,4.432,50.701,4.215,51.198,4.407z"/>
	<path fill-rule="evenodd" clip-rule="evenodd" d="M28.642,5.586c0.379-0.518,1.024-0.746,1.624-1.009
		c0.651-0.265,1.468-0.326,2.31-0.386c1.659-0.145,2.929,0.313,4.402,0.65c0.975,0.217,1.891,0.722,2.599,1.155
		c0.362,0.205,0.956,0.771,1.197,1.083c0.475,0.601,1.06,1.551,1.445,2.526c0.449,1.143,0.956,2.683,0.431,3.825
		c-0.118,0.253-0.36,0.518-0.576,0.794c-0.458,0.565-0.59,0.854-1.191,1.371c-0.186,0.156-0.517,0.433-0.727,0.47
		c-0.397,0.072-0.971-0.084-1.006-0.445c-0.048-0.457,0.789-0.649,1.12-0.818c0.498-0.265,1.185-0.673,1.441-1.203
		c0.489-0.986,0.212-2.394-0.071-3.321c-0.149-0.481-0.408-0.913-0.649-1.371c-0.89-1.661-2.111-2.767-4.013-3.537
		c-0.416-0.169-0.927-0.265-1.442-0.312c-0.511-0.06-1.059-0.169-1.552-0.193C32.005,4.816,30.387,5.333,28.642,5.586z"/>
	<path fill-rule="evenodd" clip-rule="evenodd" d="M49.027,5.178c-0.065,0.277-0.235,0.456-0.613,0.432
		C48.468,5.31,48.689,5.178,49.027,5.178z"/>
	<path fill-rule="evenodd" clip-rule="evenodd" d="M50.188,6.188c0.084-0.204,0.397-0.493,0.571-0.721
		c0.247,0.036,0.662,0.06,0.687,0.215C51.499,5.936,50.55,6.176,50.188,6.188z"/>
	<path fill-rule="evenodd" clip-rule="evenodd" d="M49.899,6.26c-0.302,0.554-1.166,0.853-1.876,1.119
		c0.239-0.494,0.589-0.879,0.824-1.384C49.266,6.019,49.515,6.212,49.899,6.26z"/>
	<path fill-rule="evenodd" clip-rule="evenodd" d="M28.245,5.659c-0.053,0.265-0.312,0.481-0.506,0.625
		c-0.938,0.697-1.804,1.432-2.597,2.333c-0.243,0.277-0.375,0.625-0.577,0.914c-0.133,0.18-0.338,0.312-0.434,0.506
		c-0.259,0.482-0.188,1.215-0.578,1.685c-0.041-0.361-0.048-0.65,0-0.963c0.048-0.361,0.276-0.577,0.397-0.866
		c0.084-0.216,0.071-0.481,0.18-0.698c0.09-0.169,0.312-0.361,0.471-0.578c0.147-0.192,0.269-0.457,0.396-0.601
		c0.145-0.192,0.373-0.288,0.542-0.482c0.15-0.155,0.231-0.384,0.395-0.577C26.514,6.296,27.301,5.695,28.245,5.659z"/>
	<path fill-rule="evenodd" clip-rule="evenodd" d="M46.754,6.766c0.215,0.048,0.096,0.432,0.215,0.576
		c0.265,0.205,0.697,0.132,0.975,0c-0.638,0.855-1.358,1.517-2.095,2.31c-0.448,0.481-0.684,1.324-0.938,2.057
		c-0.342,1.022-0.456,1.746-0.397,3.033c0.033,0.588,0.11,1.516-0.396,1.479c-0.396-0.024-0.463-1.203-0.506-1.733
		c-0.106-1.527,0.295-3.487,0.901-4.474c0.133-0.217,0.314-0.253,0.397-0.542c0.121-0.421,0.013-0.926,0.182-1.192
		c0.139-0.227,0.47-0.312,0.756-0.396C46.055,7.415,46.243,6.933,46.754,6.766z M46.284,7.993c-0.482-0.204-0.53,0.493-0.435,0.866
		C46.182,9.003,46.574,8.353,46.284,7.993z M45.093,9.941c0.156,0,0.26-0.145,0.361,0c0.016-0.192-0.091-0.18,0-0.433
		C45.213,9.424,44.893,9.677,45.093,9.941z"/>
	<path fill-rule="evenodd" clip-rule="evenodd" fill="#FFFFFF" d="M45.849,8.859c-0.096-0.374-0.048-1.07,0.435-0.866
		C46.574,8.353,46.182,9.003,45.849,8.859z"/>
	<path fill-rule="evenodd" clip-rule="evenodd" fill="#FFFFFF" d="M45.455,9.508c-0.091,0.253,0.016,0.241,0,0.433
		c-0.102-0.145-0.205,0-0.361,0C44.893,9.677,45.213,9.424,45.455,9.508z"/>
	<path fill-rule="evenodd" clip-rule="evenodd" d="M23.733,13.358c0.644,0.457,0.355,1.299,1.082,1.539
		c0.41,0.156,0.945-0.12,1.482-0.096c0.456,0.012,0.925,0.289,0.938,0.722c0.011,0.445-0.392,0.565-0.614,0.757
		c-0.132,0.109-0.469,0.518-0.757,0.578c-0.361,0.073-0.806-0.252-1.155-0.229c-0.517,0.048-1.033,0.723-0.975,1.275
		c0.024,0.217,0.228,0.458,0.434,0.614c0.144,0.107,0.57,0.288,0.541,0.505c-0.055,0.325-0.529,0.156-0.757,0.325
		c-0.324,0.241-0.162,0.613-0.397,1.047c-0.108,0.204-0.463,0.541-0.728,0.685c-0.169,0.096-0.92,0.385-0.967-0.072
		c-0.05-0.434,1.015-0.421,1.009-0.938c0.042-0.386-0.079-0.698-0.252-0.94c-0.272-0.359-0.963-0.817-1.377-1.009
		c-0.579-0.265-1.372-0.482-2.129-0.614c-0.8-0.133-1.65-0.072-2.562-0.072c-0.783,0-1.565-0.061-2.31,0.072
		c-0.559,0.109-1.137,0.242-1.661,0.361c-1.438,0.324-2.268,0.878-3.285,1.624c-0.546,0.385-1.12,0.903-1.48,1.372
		c-0.469,0.602-0.498,1.515-1.261,1.84C6.368,22.5,6.307,22.176,6.073,22.02c-0.277-0.048-0.362,0.097-0.612,0.072
		c0.162-0.782,0.6-1.13,1.161-1.695c0.329-0.35,0.649-0.734,0.973-0.975c0.934-0.699,2.185-1.143,3.395-1.841
		c1.232-0.709,2.692-0.962,4.186-1.01c0.769-0.036,1.666-0.096,2.453-0.036c0.542,0.036,1.263,0.205,1.913,0.325
		c0.609,0.108,1.263,0.325,1.661,0.542c0.458,0.24,1.161,1.035,1.738,0.866c0.368-0.108,0.199-0.601,0.254-1.118
		c0.029-0.301,0.108-0.59,0.252-0.83c0.215-0.397,0.649-0.579,0.686-1.083C24.173,14.549,23.498,14.031,23.733,13.358z"/>
	<path fill-rule="evenodd" clip-rule="evenodd" d="M75.999,39.042c-0.154,0.662,0.15,1.3-0.037,1.877
		c-0.114,0.348-0.552,0.806-0.866,1.011c-0.612,0.396-1.558,0.709-2.453,1.011c-0.877,0.301-1.918,0.517-2.996,0.434
		c-1.125-0.085-2.177-0.566-2.85-1.012c-1.078-0.709-1.986-2.562-1.92-3.969c0.036-0.686,0.373-1.528,0.831-1.48
		c0.606,0.049,0.252,1.01,0.294,1.516c0.085,1.154,1.335,2.117,2.238,2.526c1.186,0.528,4.023,1.06,5.125,0.108
		c0.806-0.697,1.01-1.938,0.647-3.188c-0.1-0.337-0.294-0.794-0.106-1.07c0.265-0.409,1.425-0.037,2.166,0.036
		c0.816,0.072,1.821,0,2.345-0.217c0.812-0.336,1.764-1.54,1.661-2.936c-0.044-0.625-0.626-1.131-0.723-1.756
		c-0.079-0.529,0.049-1.3,0.288-1.637c0.32-0.432,0.903-0.506,1.335-0.793c0.699-0.457,1.428-1.517,1.486-2.527
		c0.037-0.77-0.306-2.117-0.583-2.695c-0.223-0.493-0.66-0.998-1.191-1.516c-0.896-0.914-1.995-2.021-3.969-1.853
		c-0.548,0.049-1.433,0.241-1.914,0.685c-0.247,0.242-0.3,1.072-0.864,1.12c-0.537,0.047-0.724-0.434-0.687-0.903
		c0.029-0.432,0.373-0.878,0.543-1.045c0.773-0.746,2.445-1.251,4.075-1.011c1.154,0.181,2.291,0.757,3.141,1.408
		c0.787,0.601,1.618,1.527,2.058,2.395c0.168,0.312,0.337,0.769,0.438,1.227c0.163,0.77,0.362,1.48,0.434,2.455
		c0.054,0.793,0.127,1.419-0.108,2.117c-0.085,0.24-0.585,1.059-0.764,1.274c-0.523,0.601-1.358,0.818-1.583,1.396
		c-0.379,0.986,0.008,2.141,0.066,3.152c0.127,1.9-0.872,2.814-2.382,3.32c-0.475,0.156-1.135,0.312-1.624,0.361
		C77.002,38.91,76.48,38.729,75.999,39.042z"/>
	<path fill-rule="evenodd" clip-rule="evenodd" d="M5.207,22.489c0.103,0.265,0.019,0.951-0.355,0.975
		C4.736,23.054,5.045,22.742,5.207,22.489z"/>
	<path fill-rule="evenodd" clip-rule="evenodd" d="M6.439,23.174c0.11,0.481-0.011,1.047-0.257,1.299
		C5.777,24.161,5.623,23.126,6.439,23.174z"/>
	<path fill-rule="evenodd" clip-rule="evenodd" d="M85.749,30.056c-0.257-0.53,0.037-1.095,0.181-1.563
		c0.066-0.218,0.079-0.433,0.146-0.65c0.156-0.493,0.509-0.818,0.469-1.37c-0.048-0.554-0.464-0.675-0.651-1.18
		c-0.005-0.071,0.026-0.096,0.074-0.12c0.769,0.024,1.215,1.396,1.118,2.453C86.981,28.731,86.602,30.031,85.749,30.056z"/>
	<path fill-rule="evenodd" clip-rule="evenodd" d="M4.45,25.124c0.606-0.025,0.583,0.975,0.073,0.865
		C4.232,25.929,4.256,25.34,4.45,25.124z"/>
	<path fill-rule="evenodd" clip-rule="evenodd" d="M6.368,26.747c0.283,0.157,0.333,0.566,0.362,0.976
		C6.211,27.723,5.796,26.999,6.368,26.747z"/>
	<path fill-rule="evenodd" clip-rule="evenodd" d="M4.817,27.144c0.528-0.096,0.794,0.627,0.324,0.795
		C4.942,27.782,4.718,27.48,4.817,27.144z"/>
	<path fill-rule="evenodd" clip-rule="evenodd" d="M7.414,29.237c-0.125,0.073-0.504-0.096-0.618,0.073
		c-0.055,0.264,0.125,0.528,0.33,0.54c0.253,0.014,0.211-0.252,0.434-0.325c1.028,0.579,1.197,1.517,2.382,1.997
		c0.794,0.302,2.371,0.554,3.608,0.29c0.429-0.109,1.163-0.457,1.409-0.12c0.188,0.252-0.096,0.865-0.18,1.275
		c-0.14,0.66-0.325,1.299-0.037,1.828c0.342,0.649,1.096,1.033,1.806,1.227c0.685,0.192,2.056,0.361,2.958,0.145
		c0.362-0.072,0.938-0.481,1.265-0.312c0.456,0.204,0.005,0.793,0.106,1.443c0.177,1.035,2.082,1.48,3.398,1.396
		c0.548-0.023,1.012-0.145,1.409-0.289c0.348-0.12,0.729-0.517,1.192-0.288c-0.103,0.806-1.239,0.986-2.095,1.058
		c-0.962,0.073-2.275,0.097-3.001-0.192c-0.487-0.18-1.004-0.638-1.227-0.963c-0.307-0.469-0.265-0.938-0.723-1.129
		c-0.377-0.145-0.907-0.049-1.37-0.024c-2.389,0.06-4.145-0.493-4.91-2.069c-0.265-0.542-0.239-1.312-0.647-1.516
		c-0.453-0.217-1.221-0.145-1.663-0.289c-1.37-0.434-2.742-1.179-3.68-2.094c-0.222-0.216-0.344-0.457-0.612-0.686
		c-0.495-0.422-1.151-0.59-1.229-1.371c0.318-0.146,0.554,0.131,0.787,0.071c0.32-0.083,0.18-0.517,0.441-0.721
		C7.21,28.432,7.445,28.708,7.414,29.237z"/>
	<path fill-rule="evenodd" clip-rule="evenodd" d="M62.711,36.865c-0.506-0.036-0.638,0.77-0.758,0.985
		c-0.229,0.41-0.679,0.975-1.083,1.229c-1.298,0.806-3.934,0.215-4.943-0.543c-0.307-0.228-0.596-0.564-0.975-0.541
		c-0.59,0.023-0.842,0.867-1.229,1.264c-0.71,0.722-1.935,1.432-3.038,1.623c-0.559,0.098-1.389,0.17-2.02,0.037
		c-0.265-0.061-0.548-0.193-0.831-0.289c-0.673-0.24-1.335-0.541-1.552-1.227c-0.102-0.324,0.15-1.408-0.252-1.588
		c-0.48-0.217-0.98,0.782-1.12,0.975c-0.842,1.202-2.479,2.141-3.932,2.598c-0.776,0.24-1.835,0.457-2.781,0.542
		c-1.089,0.085-2.196,0.204-3.174,0.181c-0.507-0.024-1.07-0.121-1.596-0.181c-0.522-0.061-1.015-0.157-1.442-0.325
		c-1.364-0.529-2.54-1.18-2.924-2.49c-0.368-1.264,0.336-2.369,1.046-2.924c0.312-0.24,0.818-0.275,0.94-0.77
		c-0.723-0.481-1.631,0.506-1.915,0.987c-0.23,0.384-0.292,0.865-0.493,1.347c-0.013,0.024-0.625,1.637,0.896,3.225
		c0.018,0.023,0.044,0.035,0.061,0.061c0.896,0.902,2.688,1.792,5.155,2.057c0.042,0.012,0.084,0.023,0.127,0.023
		c1.955,0.193,4.323,0,6.996-0.879l0,0c0.379-0.443,1.179-0.746,1.595-1.105c0.294-0.254,0.54-0.471,0.9-0.687
		c0.247-0.155,0.747-0.529,1.084-0.505c0.299,0.025,0.59,0.41,0.865,0.613c0.306,0.205,0.722,0.397,0.976,0.506
		c0.667,0.277,1.533,0.625,2.28,0.723c1.754,0.229,3.27-0.422,4.259-1.156c0.324-0.252,0.637-0.781,1.081-0.866
		c0.747-0.133,1.444,0.421,2.236,0.578c1.067,0.204,2.407,0.12,3.285-0.108c0.277-0.072,0.621-0.119,0.904-0.217
		c0.774-0.289,1.749-1.082,1.803-2.142C63.169,37.49,63.115,36.913,62.711,36.865z"/>
</g>
<text transform="matrix(0.7604 0 0 1 21.0708 31.4785)"><tspan x="0" y="0" font-family="'Daniel-Bold'" font-size="11.1731">W</tspan><tspan x="11.284" y="0" font-family="'Daniel-Bold'" font-size="11.1731">ool’s End</tspan></text>
</svg>
