<?xml version="1.0" encoding="utf-8"?>
<!-- Generator: Adobe Illustrator 15.0.0, SVG Export Plug-In . SVG Version: 6.00 Build 0)  -->
<!DOCTYPE svg PUBLIC "-//W3C//DTD SVG 1.1//EN" "http://www.w3.org/Graphics/SVG/1.1/DTD/svg11.dtd">
<svg version="1.1" id="Layer_1" xmlns="http://www.w3.org/2000/svg" xmlns:xlink="http://www.w3.org/1999/xlink" x="0px" y="0px"
	 width="576.667px" height="268.5px" viewBox="0 0 576.667 268.5" enable-background="new 0 0 576.667 268.5" xml:space="preserve">
<path fill="#FFFFFF" d="M134.296,210.073c-20.619,8.858-102.75-18.688-98.375-10.875c0,0,4.312,29.938,29.188,38.188
	c0,0,0.25-6.188,3-4.5c0,0,2.416,9.77,15.771,10.666l3.791,5.709c0,0,1.125-4.938,3.375-4.875s5.938,7.125,5.562,20.938
	c0,0-0.688,2.812,5.75,0.062s11.812-7.375,12.125-11.438l3.5,4.875c0,0,1.75-11.293,6.562-10.271s5.75,3.521,5.062,6.334
	c0,0,27.438,0.875,40.562-26.25C170.171,228.636,160.046,199.011,134.296,210.073z"/>
<path opacity="0.1" fill="#232323" d="M68.546,233.22c-1.916-3.25-3.02,4.437-3.02,4.437c-24.389-8.176-29.391-37-29.391-37
	l24.076,8.229C60.212,208.886,56.796,220.304,68.546,233.22"/>
<path fill="#FFFFFF" d="M87.046,12.552c0,0,1.166,5-6.5,6.167c0,0-23.004,7.224-34.252,21.528c0,0-12.748-6.527-28.164-2.944
	c0,0-4.584,10.333,2.916,27.333c0,0-17.783,18.76-16.58,46.942c0,0-2.92,6.433,2.08,16.808c0,0-1.625,11.75,1.75,17.625l2.375-1.75
	c0,0,34,11.75,88,13c0,0,78.266,5.236,116.32-12.507c0,0,10.93-32.118-0.445-54.868c0,0-1.5-18.75-11.125-29.125
	c0,0,5.615-15.229,1.434-23.489c0,0-6.934-3.511-25.059,1.364c0,0-22.125-25.125-53.75-23.875c0,0-7.625,3-4.25-2.25
	s6.375-9,6.375-9s-6.5,3.75-15.25,8.875C112.921,12.386,95.421,23.969,87.046,12.552z"/>
<path fill="#4C4B4C" d="M79.213,243.886c-0.069,0-0.14-0.007-0.211-0.022c-8.838-1.894-10.972-8.507-11.366-10.125
	c-0.251-0.212-0.371-0.231-0.373-0.232c-0.329,0.262-0.731,2.289-0.736,4.153l-0.004,1.386l-1.313-0.44
	c-24.669-8.27-30.008-37.483-30.059-37.777c-0.095-0.544,0.271-1.062,0.814-1.156c0.545-0.091,1.062,0.271,1.156,0.813
	c0.048,0.277,5.013,27.329,27.461,35.775c0.138-1.744,0.591-4.036,1.993-4.615c0.586-0.24,1.523-0.286,2.678,0.868l0.224,0.224
	l0.055,0.312c0.051,0.282,1.368,7.033,9.891,8.859c0.54,0.115,0.884,0.647,0.768,1.188
	C80.089,243.564,79.675,243.886,79.213,243.886z"/>
<path fill="#BAE6FB" d="M91.919,85.391c0,0,2.193-7.392,1.594-10.985c0,0,3.795-0.399,9.385,19.365c0,0,1.996-23.758,25.354-19.166
	c0,0,15.711,0.715,21.332,15.53c0,0,6.02-4.15,3.824-13.533c0,0,18.367,12.178,20.164,39.729c0,0,1.396,9.583-3.395,18.567
	l-2.959,6.909c0,0,3.193,2.662,2.838,6.212c-0.354,3.549-2.838,14.996-28.66,19.788c-25.822,4.791-63.055,7.818-89.807-10.35
	c0,0-6.678-5.659,6.543-16.604c0,0-7.342-1.164-9.539-5.756c0,0,6.59,1.931,10.383-3.061c0,0-12.977-4.525-7.787-24.89
	c0,0,0.799-16.97,22.162-27.551c0,0,10.381-4.192,16.969,0.799L91.919,85.391z"/>
<path fill="#4C4B4C" d="M108.71,172.738c-9.078,0-17.069-0.844-23.638-1.947c-18.669-3.135-32.905-9.634-35.391-13.857
	c-3.427-5.825,2.958-12.599,6.173-15.479c-6.851-1.818-9.332-8.34-9.444-8.644c-0.19-0.518,0.074-1.093,0.593-1.284
	c0.517-0.189,1.093,0.074,1.284,0.593c0.105,0.284,2.698,7.013,9.944,7.737l2.529,0.253l-2.024,1.539
	c-0.108,0.082-10.827,8.326-7.33,14.271c1.585,2.694,13.542,9.464,33.997,12.899c16.869,2.832,43.27,3.932,73.288-6.895
	c1.107-0.822,10.331-7.869,10.454-14.309c0.041-2.147-0.942-3.971-3.005-5.575c-0.436-0.339-0.514-0.967-0.175-1.403
	c0.34-0.434,0.967-0.516,1.403-0.175c2.56,1.99,3.83,4.411,3.775,7.194c-0.151,7.816-10.936,15.643-11.395,15.972l-0.243,0.128
	C140.711,170.556,123.308,172.738,108.71,172.738z"/>
<g>
	<path fill="#6DCAF3" d="M138.374,213.499c0,0-0.9,3.728-2.928,9.052s29.5,17.836,45.262,4.525c0,0,6.307-9.317,0.227-28.218"/>
	<path fill="#274E5E" d="M161.967,233.975c-9.879,0.001-19.704-3.284-24.506-6.688c-3.182-2.255-3.359-4.014-2.949-5.092
		c1.978-5.194,2.882-8.895,2.891-8.932l1.943,0.47c-0.037,0.155-0.938,3.851-2.965,9.173c-0.13,0.341,0.195,1.303,2.236,2.749
		c7.767,5.506,29.34,10.728,41.326,0.757c0.628-1.057,5.539-10.151,0.039-27.247l1.904-0.613
		c6.158,19.145-0.082,28.688-0.351,29.085l-0.183,0.203C176.06,232.311,169,233.975,161.967,233.975z"/>
</g>
<path opacity="0.5" fill="#274E5E" d="M181.728,223.489c0,0,4.113-8.458-17.305-6.52s-23.475,0-28.615,4.758
	c0,0,1.715-7.577,4.627-8.282s17.82-1.586,40.266-11.63C180.7,201.815,187.382,215.207,181.728,223.489z"/>
<g>
	<path fill="#6DCAF3" d="M41.091,202.188c20.723,7.896,86.273,28.088,155.865-5.259c0,0,23.826-46.852,19.035-52.176
		c0,0-60.682,28.309-196.871,2.994c0,0-3.715-1.93-7.443-2.729c-3.727-0.798,4.525,35.405,10.648,35.14
		C22.325,180.159,27.646,197.064,41.091,202.188z"/>
	<path fill="#274E5E" d="M114.479,216.491c-0.003,0-0.003,0-0.007,0c-33.636-0.001-60.637-8.376-73.738-13.368
		c-12.45-4.745-18.053-18.919-19.161-22.063c-6.06-1.78-11.828-26.461-11.828-33.505c0-0.878,0-3.548,1.814-3.548
		c0.107,0,0.218,0.012,0.326,0.035c3.458,0.74,6.838,2.386,7.56,2.749c37.453,6.954,72.686,10.48,104.709,10.48
		c0.006,0,0.008,0,0.014,0c61.832-0.002,91.112-13.29,91.401-13.424l0.67-0.312l0.495,0.55c4.997,5.554-14.856,45.372-18.887,53.298
		l-0.154,0.303l-0.306,0.146C171.549,210.213,143.652,216.491,114.479,216.491z M11.849,146.083
		c-0.819,2.907,2.632,21.009,7.398,29.718c1.707,3.117,2.736,3.359,3.011,3.359h0.733l0.288,0.698
		c0.052,0.165,5.343,16.508,18.168,21.396c12.973,4.943,39.71,13.236,73.025,13.237c0.002,0,0.006,0,0.008,0
		c28.758,0.001,56.255-6.162,81.738-18.317c9.296-18.322,20.89-44.895,19.342-50.147c-5.26,2.171-34.88,13.244-91.393,13.245
		c-0.004,0-0.01,0-0.014,0c-32.188,0.001-67.588-3.546-105.217-10.54l-0.278-0.096C18.625,148.617,15.269,146.888,11.849,146.083z"
		/>
</g>
<g>
	<path fill="#6DCAF3" d="M156.116,155.697c0,0,1.076-4.575,4.303-5.511s22.916-3.038,33.176,3.497
		c10.258,6.535,35.898,61.243,30.051,80.211c0,0-21.375,21.557-38.305,12.42C185.341,246.314,192.956,192.783,156.116,155.697z"/>
	<path fill="#274E5E" d="M194.492,249.571c-3.466,0-6.704-0.8-9.626-2.377l-0.613-0.331l0.098-0.689
		c0.075-0.53,7.106-53.48-28.943-89.771l-0.392-0.394l0.127-0.54c0.05-0.211,1.253-5.157,4.998-6.242
		c1.601-0.465,6.469-1.118,12.278-1.118c6.517,0,15.573,0.82,21.713,4.731c10.566,6.731,36.534,61.677,30.47,81.35l-0.073,0.234
		l-0.173,0.175C223.749,235.21,209.339,249.571,194.492,249.571z M186.416,245.744c2.47,1.213,5.183,1.827,8.076,1.827
		c13.169,0,26.592-12.585,28.27-14.21c5.52-19.057-20.132-72.736-29.704-78.834c-5.734-3.652-14.389-4.419-20.639-4.419
		c-5.552,0-10.276,0.619-11.722,1.038c-2.029,0.589-3.087,3.16-3.454,4.269C191.259,190.089,187.132,239.262,186.416,245.744z"/>
</g>
<path opacity="0.5" fill="#274E5E" d="M22.991,181.623c0,0,34.688,12.139,74.938,10.652
	C97.929,192.275,60.296,209.864,22.991,181.623z"/>
<path opacity="0.5" fill="#274E5E" d="M159.698,160.604c0,0,11.357,16.577,8.111,22.103c0,0-1.326,4.676-5.9,6.164
	c0,0,12.244-1.7,16.227,14.877l2.951-0.851C181.087,202.896,175.628,178.03,159.698,160.604z"/>
<g>
	<path fill="#6DCAF3" d="M19.347,177.857c0,0,16.57,16.308,78.662,15.604"/>
	<path fill="#274E5E" d="M94.09,194.483c-58.594,0-74.771-15.25-75.444-15.913l1.4-1.428c0.165,0.159,17.194,16.012,77.951,15.318
		l0.023,2C96.692,194.476,95.377,194.483,94.09,194.483z"/>
</g>
<path fill="#274E5E" d="M148.836,192.161l-0.326-1.973c11.729-1.934,20.803-4.508,26.971-7.649l0.908,1.781
	C170.037,187.557,160.768,190.194,148.836,192.161z"/>
<circle fill="#274E5E" cx="186.225" cy="252.582" r="2.529"/>
<circle fill="#274E5E" cx="134.067" cy="230.072" r="2.529"/>
<circle fill="#274E5E" cx="142.636" cy="235.659" r="2.529"/>
<circle fill="#274E5E" cx="153.072" cy="238.325" r="2.528"/>
<circle fill="#274E5E" cx="162.691" cy="238.975" r="2.528"/>
<circle fill="#274E5E" cx="172.104" cy="237.688" r="2.528"/>
<circle fill="#274E5E" cx="180.418" cy="233.933" r="2.528"/>
<circle fill="#274E5E" cx="195.266" cy="254.275" r="2.529"/>
<circle fill="#274E5E" cx="204.309" cy="252.763" r="2.529"/>
<circle fill="#274E5E" cx="212.553" cy="249.283" r="2.529"/>
<circle fill="#274E5E" cx="220.197" cy="245.29" r="2.529"/>
<circle fill="#274E5E" cx="226.443" cy="239.1" r="2.529"/>
<path fill="#4C4B4C" d="M98.465,83.548c-0.458,0-0.872-0.317-0.976-0.783c-1.461-6.577-5.316-8.049-5.355-8.063
	c-0.519-0.188-0.787-0.763-0.598-1.281c0.188-0.519,0.76-0.785,1.281-0.598c0.2,0.072,4.928,1.873,6.625,9.509
	c0.119,0.539-0.221,1.073-0.76,1.193C98.609,83.54,98.537,83.548,98.465,83.548z"/>
<path fill="#4C4B4C" d="M58.729,133.466c-0.137,0-0.275-0.028-0.408-0.088c-4.73-2.123-7.878-5.503-9.356-10.044
	c-3.86-11.853,4.928-27.442,5.304-28.101C65.905,77.786,78.054,76.992,84.27,78.069c2.582,0.447,5.48,1.539,6.344,2.603
	c0.152,0.165,2.144,2.391,1.399,5.219c-0.14,0.534-0.683,0.853-1.222,0.712c-0.534-0.141-0.853-0.688-0.712-1.222
	c0.471-1.789-0.916-3.332-0.931-3.347l-0.182-0.205c-0.727-0.532-4.565-2.535-10.332-1.978c-5.708,0.554-14.273,3.854-22.667,16.433
	c-0.052,0.095-8.688,15.429-5.102,26.436c1.298,3.979,4.081,6.952,8.272,8.834c0.504,0.226,0.729,0.817,0.503,1.321
	C59.476,133.246,59.11,133.466,58.729,133.466z"/>
<path fill="#4C4B4C" d="M102.858,97.524c-0.007,0-0.014,0-0.021,0c-0.553-0.012-0.991-0.469-0.979-1.021
	c0.018-0.816,0.581-20.02,14.803-22.528c12.166-2.146,27.061,0.563,33.241,14.321c1.48-1.918,3.945-6.385,2.3-13.512
	c-0.124-0.538,0.212-1.075,0.75-1.199c0.534-0.123,1.074,0.212,1.199,0.75c2.503,10.845-3.65,16.326-3.913,16.555l-1.079,0.935
	l-0.51-1.333c-5.319-13.904-19.831-16.631-31.641-14.548c-12.621,2.228-13.146,20.417-13.15,20.601
	C103.847,97.09,103.401,97.524,102.858,97.524z"/>
<path fill="#4C4B4C" d="M169.15,138.258c-0.142,0-0.286-0.03-0.424-0.095c-0.5-0.234-0.715-0.83-0.48-1.33
	c14.698-31.334-11.896-57.298-12.167-57.557c-0.399-0.382-0.413-1.015-0.031-1.414s1.013-0.413,1.414-0.031
	c0.28,0.269,27.896,27.231,12.595,59.852C169.887,138.045,169.526,138.258,169.15,138.258z"/>
<path fill="#191919" d="M72.735,129.707c0,0,10.98,9.981,19.965,4.99c0,0,0.998-22.16-9.383-20.763
	C83.317,113.935,76.329,113.935,72.735,129.707z"/>
<path fill="#FFFFFF" d="M87.169,119.537c0,0-1.85-1.423-1.85,0.712c0,2.134,1.279,9.392,3.271,7.399S87.88,120.391,87.169,119.537z"
	/>
<g>
	<path fill="#191919" d="M151.558,129.707c0,0-10.98,9.981-19.965,4.99c0,0-0.998-22.16,9.383-20.763
		C140.976,113.935,147.964,113.935,151.558,129.707z"/>
</g>
<path fill="#191919" d="M112.188,140.558c0,0,7.738-0.383,9.666,1.553c1.926,1.935-1.111,4.887-5.684,6.052
	c0,0-2.82,0.696-2.992,5.352c0,0-0.082,2.262-0.879,2.232h-0.305c-0.799,0.029-0.881-2.232-0.881-2.232
	c-0.17-4.655-2.992-5.352-2.992-5.352c-4.572-1.165-7.611-4.117-5.684-6.052c1.928-1.936,9.668-1.553,9.668-1.553"/>
<g>
	<path fill="#274E5E" d="M66.147,133.644c0,0-3.461,1.153-3.461,2.662c0,1.508,1.066-0.089,2.396-0.71
		C66.415,134.975,67.923,133.82,66.147,133.644z"/>
	<path fill="#274E5E" d="M69.786,136.571c0,0-4.17,1.242-4.082,3.018c0.09,1.774,0.711,1.42,1.686,0.532
		C68.366,139.233,72.183,137.104,69.786,136.571z"/>
</g>
<g>
	<path fill="#274E5E" d="M158.146,133.644c0,0,3.461,1.153,3.461,2.662c0,1.508-1.066-0.089-2.396-0.71
		C157.878,134.975,156.37,133.82,158.146,133.644z"/>
	<path fill="#274E5E" d="M154.507,136.571c0,0,4.17,1.242,4.082,3.018c-0.09,1.774-0.711,1.42-1.686,0.532
		C155.927,139.233,152.11,137.104,154.507,136.571z"/>
</g>
<path opacity="0.3" fill="#274E5E" d="M111.731,137.826c-14.375-0.6-20.299,5.39-15.107-0.999s14.975-6.987,14.975-6.987h1.098
	c0,0,9.781,0.599,14.973,6.987c5.189,6.389-0.732,0.399-15.107,0.999H111.731z"/>
<path fill="#FFFFFF" d="M144.667,119.537c0,0-1.852-1.423-1.852,0.712c0,2.134,1.281,9.392,3.273,7.399
	S145.378,120.391,144.667,119.537z"/>
<path fill="#FFFFFF" d="M5.712,128.886c0,0,0.334,9.833,1,12.833c0,0,1.668-2,2.5-1.833l2.793,4.359c0,0,7.986,14.376,23.961,15.974
	c0,0-5.99-6.789-0.799-5.191s13.979,4.393,17.971,3.194c0,0-3.791-1.197-2.992-7.188"/>
<path opacity="0.13" fill="#232323" d="M57.921,44.011c0,0-9.562,4.625-10.625,19.688s0,0,0,0l-1.375,5.062"/>
<path opacity="0.1" fill="#232323" d="M84.771,17.522c-24.912,5.661-47.77,29.083-47.77,29.083
	C2.657,79.752,2.925,105.204,3.989,113.988c0.412,3.396,0.74,7.825,0.988,11.979c0.072,1.229,1.174,2.434,1.289,3.581
	c0.508,5.007,0.297,10.914,0.297,10.914c0.68-0.641,1.154,5.249,1.154,5.249l5.789,0.354l2.93,4.525
	c14.508,12.911,19.564,9.45,19.564,9.45c-4.125-6.123-0.266-4.26-0.266-4.26c20.232,5.99,15.973,2.529,15.973,2.529
	c-30.33-18.566-31.307-47.168-25.133-69.905c0,0,3.783-11.458,19.346-19.646c0,0,0.25,0.188,1.5-5.562s1-12.25,9.438-18.75
	c0,0,0.75-0.438,1.438-0.688c0,0,4.562-17.062,26.625-25.5L84.771,17.522"/>
<path fill="none" stroke="#4D4D4D" stroke-width="2" stroke-linecap="round" stroke-miterlimit="10" d="M9.212,139.886"/>
<path fill="#4C4B4C" d="M38.399,161.467l-2.533-0.253c-14.936-1.494-22.979-13.57-24.485-16.057
	c-0.829,0.068-1.913,1.305-2.332,1.942l-0.953,1.453L7.317,147c-1.386-2.771-1.575-4.664-1.602-5.156
	c-0.603-2.933-0.125-11.095-0.02-12.745c-3.849-7.56-2.534-15.986-2.253-17.5c-2.451-10.942,8.019-51.78,42.142-72.094
	c1.271-1.878,10.864-14.805,38.803-22.913c0.387-0.219,2.223-1.345,2.169-2.896l-0.111-3.167l1.908,2.529
	c0.175,0.227,4.46,5.596,14.557,2.405c6.687-2.115,10.465-4.418,14.84-7.084c2.734-1.666,5.562-3.389,9.409-5.273L131.46,1
	l-3.099,3.651c-2.042,2.406-7.214,9.366-6.627,12.636c0.097,0.539,0.355,0.91,0.815,1.168c0.481,0.271,0.652,0.881,0.382,1.362
	c-0.271,0.48-0.882,0.65-1.362,0.382c-0.979-0.551-1.603-1.436-1.804-2.56c-0.538-3.005,2.071-7.495,4.286-10.655
	c-1.924,1.068-3.609,2.096-5.261,3.103c-4.299,2.62-8.36,5.095-15.277,7.282c-8.275,2.619-13.204,0.008-15.399-1.769
	c-0.883,1.771-2.784,2.759-2.891,2.813l-0.175,0.069C56.153,26.843,47.228,40.64,47.142,40.778l-0.13,0.206l-0.209,0.123
	C13.125,61.021,2.877,101.087,5.436,111.336l0.056,0.223l-0.047,0.225c-0.019,0.09-1.83,9.064,2.152,16.637l0.132,0.251
	l-0.019,0.282c-0.183,2.695-0.542,10.204-0.021,12.549l0.023,0.217c0,0.007,0.027,1.102,0.753,2.951
	c0.922-0.927,2.32-1.896,3.863-1.371l0.363,0.124l0.188,0.336c0.073,0.132,7.088,12.446,20.708,15.101
	c-1.424-1.985-1.854-3.437-1.278-4.327c0.769-1.192,2.564-0.643,3.152-0.461l0.543,0.168c4.091,1.261,10.451,3.222,14.56,3.277
	c-0.999-1.222-1.855-3.27-1.409-6.614c0.073-0.548,0.572-0.927,1.123-0.859c0.548,0.073,0.933,0.576,0.859,1.123
	c-0.68,5.099,2.272,6.093,2.302,6.103l3.097,0.978l-3.11,0.934c-4.14,1.242-12.488-1.327-18.01-3.029l-0.542-0.167
	c-0.333-0.103-0.574-0.154-0.743-0.179c0.298,0.791,1.391,2.396,2.586,3.753L38.399,161.467z"/>
<g>
	<defs>
		<path id="XMLID_12_" d="M55.765,44.259c0,0-22.359-12.577-37.932-6.987c0,0-5.99,13.576,8.982,38.132
			C26.815,75.403,51.571,66.22,55.765,44.259z"/>
	</defs>
	<use xlink:href="#XMLID_12_"  overflow="visible" fill="#6DCAF3"/>
	<clipPath id="XMLID_2_">
		<use xlink:href="#XMLID_12_"  overflow="visible"/>
	</clipPath>
	<path opacity="0.3" clip-path="url(#XMLID_2_)" fill="#274E5E" d="M17.833,37.271c-5.32,13.66,8.982,38.132,8.982,38.132
		l14.172-9.199c-12.779-1.863-22.096-28.75-22.096-28.75L17.833,37.271z"/>
	<use xlink:href="#XMLID_12_"  overflow="visible" fill="none" stroke="#274E5E" stroke-width="2" stroke-miterlimit="10"/>
</g>
<g>
	<path fill="#FFFFFF" d="M57.56,44.174c0,0-9.316,5.059-10.381,21.297c0,0,2.662-3.993,6.389-5.856"/>
	<path fill="#4C4B4C" d="M45.937,69.138l0.244-3.732c1.088-16.598,10.502-21.893,10.901-22.11c0.487-0.262,1.092-0.083,1.356,0.401
		c0.263,0.484,0.084,1.091-0.398,1.354l0,0c-0.082,0.045-7.593,4.337-9.515,17.205c1.171-1.229,2.753-2.615,4.595-3.536
		c0.493-0.245,1.094-0.047,1.342,0.447c0.247,0.494,0.047,1.095-0.447,1.342c-3.449,1.725-5.979,5.479-6.004,5.517L45.937,69.138z"
		/>
</g>
<path fill="#BAE6FB" d="M104.714,146.802c0,0,6.582,3.416,14.75,0.5c0,0-1.418,11.834-8.834,9.167S102.964,147.968,104.714,146.802z
	"/>
<path fill="#FFFFFF" d="M205.093,145.482c2.424,2.758,1.58,5.618,1.58,5.618c5.924-0.937,9.082-8.896,9.082-8.896l1.916-7.068
	C217.671,135.136,197.263,136.579,205.093,145.482z"/>
<path fill="#4C4B4C" d="M205.054,152.369l0.697-1.657c0.123-0.299,1.148-2.996-1.168-4.369c-0.476-0.282-0.632-0.896-0.351-1.37
	c0.281-0.476,0.895-0.632,1.37-0.351c2.173,1.288,2.603,3.38,2.437,5.057c4.345-1.806,6.76-7.776,6.786-7.844l1.31-4.395
	c0.676-2.826,1.193-5.418,1.523-7.652c3.764-25.51-3.839-40.005-3.916-40.147l-0.103-0.19l-0.016-0.217
	c-2.052-29.798-31.472-46.563-31.769-46.729l-0.191-0.106l-0.13-0.178c-15.935-21.865-46.829-26.735-52.252-26.788
	c-0.053-0.001-0.104-0.001-0.155-0.001c-2.474,0-3.129,0.604-3.272,0.794c-0.099,0.13-0.109,0.262-0.109,0.263
	c0.152,0.53-0.153,1.085-0.685,1.237c-0.535,0.154-1.085-0.154-1.237-0.685c-0.14-0.485-0.108-1.307,0.439-2.026
	c0.817-1.075,2.534-1.638,5.039-1.582c5.573,0.055,37.265,5.047,53.724,27.439c2.619,1.54,30.427,18.581,32.579,48.016
	c0.971,1.908,7.706,16.292,4.032,41.193c-0.339,2.293-0.867,4.943-1.571,7.88l-1.353,4.53c-0.166,0.43-3.471,8.584-9.884,9.598
	L205.054,152.369z"/>
<g>
	<defs>
		<path id="XMLID_11_" d="M166.921,44.259c0,0,22.361-12.577,37.934-6.987c0,0,5.988,13.576-8.984,38.132
			C195.87,75.403,171.114,66.22,166.921,44.259z"/>
	</defs>
	<use xlink:href="#XMLID_11_"  overflow="visible" fill="#6DCAF3"/>
	<clipPath id="XMLID_3_">
		<use xlink:href="#XMLID_11_"  overflow="visible"/>
	</clipPath>
	<path opacity="0.3" clip-path="url(#XMLID_3_)" fill="#274E5E" d="M201.108,36.922c0,0-25.557,12.245-21.562,27.951
		c0,0-10.076-6.888-12.625-20.614C166.921,44.259,192.856,32.396,201.108,36.922z"/>
	<use xlink:href="#XMLID_11_"  overflow="visible" fill="none" stroke="#274E5E" stroke-width="2" stroke-miterlimit="10"/>
</g>
<g>
	<path fill="#FFFFFF" d="M165.29,42.474c0,0,7.68,5.015,10.326,14.347c0,0-5.945-3.763-7.307-0.294"/>
	<path fill="#4C4B4C" d="M177.29,59.059l-2.208-1.393c-1.287-0.812-3.81-1.943-5.102-1.518c-0.355,0.117-0.584,0.346-0.74,0.743
		c-0.202,0.515-0.784,0.766-1.296,0.565c-0.515-0.201-0.768-0.782-0.565-1.296c0.372-0.95,1.058-1.611,1.98-1.914
		c1.403-0.457,3.141,0.001,4.513,0.563c-2.981-7.397-9.062-11.456-9.13-11.5c-0.461-0.303-0.591-0.923-0.288-1.384
		c0.302-0.463,0.922-0.591,1.383-0.29c0.326,0.213,8.024,5.329,10.741,14.911L177.29,59.059z"/>
</g>
<path opacity="0.13" fill="#232323" d="M172.921,58.136c0,0-1.875-4.25-3.875-2.5s-2.375,7.625,27.125,20.625
	C196.171,76.261,178.421,66.511,172.921,58.136z"/>
<path fill="#FFFFFF" d="M53.671,43.011"/>
<path fill="#4C4B4C" d="M97.606,267.27c-0.744,0-1.184-0.059-1.206-0.062l-0.891-0.131l0.037-0.899
	c0.18-4.336-0.021-16.312-3.069-19.613c-0.401-0.436-1.146-1.134-1.704-0.981c-0.857,0.253-1.659,2.373-1.908,3.807l-0.353,2.027
	l-1.376-1.529c-9.151-10.168-9.257-24.722-9.257-25.336c0-0.552,0.447-0.999,0.999-1c0.001,0,0.001,0,0.001,0
	c0.552,0,0.999,0.447,1,0.999c0,0.137,0.104,13.036,7.525,22.546c0.481-1.377,1.345-3.002,2.803-3.432
	c1.207-0.36,2.466,0.162,3.738,1.542c3.683,3.989,3.702,16.465,3.627,20.083c2.708,0.062,10.812-0.724,16.074-11.51l0.726-1.488
	l3.401,4.639l1.04-3.993c0.302-2.042,1.095-3.545,2.356-4.468c1.642-1.202,3.463-0.915,3.539-0.904
	c2.112,0.233,3.762,1.054,4.849,2.432c0.955,1.21,1.245,2.582,1.319,3.526l2.64-0.075c0.132-0.008,16.31-1.08,25.287-10.984
	c0.371-0.41,1.005-0.438,1.413-0.069c0.409,0.371,0.44,1.004,0.069,1.413c-9.534,10.518-25.987,11.598-26.683,11.639l-4.861,0.14
	l0.145-1.157c0.001-0.013,0.193-1.822-0.911-3.208c-0.744-0.933-1.936-1.497-3.541-1.675c-0.057-0.009-1.153-0.158-2.105,0.554
	c-0.81,0.605-1.329,1.675-1.544,3.178l-0.022,0.11l-2.114,8.119l-3.959-5.4C109.055,266.261,100.698,267.27,97.606,267.27z"/>
<g>
	<path fill="#191919" d="M239.856,96.44h2.422l12.54,46.952l12.683-34.769h2.279l12.754,34.769l12.468-46.952h2.423l-13.68,51.228
		h-2.423l-12.682-35.695l-12.683,35.695h-2.422L239.856,96.44z"/>
	<path fill="#191919" d="M304.478,113.255c2.897-2.28,6.77-3.42,11.614-3.42s8.738,1.14,11.685,3.42
		c3.182,2.471,4.773,6.081,4.773,10.83c0,4.798-1.592,8.432-4.773,10.9c-2.946,2.28-6.84,3.42-11.685,3.42s-8.717-1.14-11.614-3.42
		c-3.183-2.469-4.773-6.103-4.773-10.9C299.704,119.336,301.295,115.726,304.478,113.255z M305.975,133.632
		c2.469,1.948,5.842,2.921,10.117,2.921c9.451,0,14.178-4.155,14.178-12.468c0-4.18-1.33-7.339-3.989-9.477
		c-2.471-1.946-5.867-2.921-10.188-2.921c-9.405,0-14.107,4.133-14.107,12.397C301.984,128.312,303.313,131.494,305.975,133.632z
		 M330.198,143.037v2.208h-28.143v-2.208H330.198z"/>
	<path fill="#191919" d="M343.309,113.255c2.897-2.28,6.77-3.42,11.614-3.42s8.738,1.14,11.685,3.42
		c3.182,2.471,4.773,6.081,4.773,10.83c0,4.798-1.592,8.432-4.773,10.9c-2.946,2.28-6.84,3.42-11.685,3.42s-8.717-1.14-11.614-3.42
		c-3.183-2.469-4.773-6.103-4.773-10.9C338.535,119.336,340.126,115.726,343.309,113.255z M344.806,133.632
		c2.469,1.948,5.842,2.921,10.117,2.921c9.451,0,14.178-4.155,14.178-12.468c0-4.18-1.33-7.339-3.989-9.477
		c-2.471-1.946-5.867-2.921-10.188-2.921c-9.405,0-14.107,4.133-14.107,12.397C340.815,128.312,342.145,131.494,344.806,133.632z
		 M369.029,143.037v2.208h-28.143v-2.208H369.029z"/>
	<path fill="#191919" d="M379.503,96.512h2.209v51.156h-2.209V96.512z"/>
	<path fill="#191919" d="M406.363,139.688c-4.846,0-8.669-1.318-11.472-3.955c-2.803-2.636-4.203-6.328-4.203-11.079
		c0-4.797,1.425-8.524,4.274-11.186c2.755-2.611,6.555-3.919,11.4-3.919c4.749,0,8.454,1.165,11.114,3.491
		c2.944,2.519,4.418,6.081,4.418,10.688v0.997h-28.856v0.428c0,4.086,1.235,7.221,3.705,9.405c2.327,2.137,5.533,3.206,9.619,3.206
		c6.079,0,10.117-2.066,12.112-6.199l1.923,0.784c-0.95,2.043-2.446,3.658-4.488,4.845
		C413.249,138.857,410.067,139.688,406.363,139.688z M420.327,143.037v2.208h-28.143v-2.208H420.327z M419.473,123.087
		c0-3.704-1.188-6.602-3.562-8.692c-2.328-1.946-5.368-2.921-9.12-2.921c-8.646,0-13.205,3.872-13.68,11.613H419.473z"/>
	<path fill="#191919" d="M430.587,110.69h2.28v6.056c2.326-4.56,6.483-6.84,12.469-6.84c8.453,0,12.682,4.417,12.682,13.252v24.51
		h-2.28v-23.797c0-3.942-0.712-6.84-2.137-8.692c-1.663-2.138-4.395-3.206-8.194-3.206c-6.981,0-11.043,3.159-12.183,9.476
		c-0.096,0.713-0.179,1.604-0.25,2.672c-0.071,1.069-0.106,2.315-0.106,3.741v19.807h-2.28V110.69z"/>
	<path fill="#191919" d="M498.985,125.011l-17.599-28.57h2.707l16.174,26.148l15.96-26.148h2.707l-17.599,28.713v22.515h-2.351
		V125.011z"/>
	<path fill="#191919" d="M532.045,139.688c-4.846,0-8.669-1.318-11.472-3.955c-2.803-2.636-4.203-6.328-4.203-11.079
		c0-4.797,1.425-8.524,4.274-11.186c2.755-2.611,6.555-3.919,11.4-3.919c4.749,0,8.454,1.165,11.114,3.491
		c2.944,2.519,4.418,6.081,4.418,10.688v0.997h-28.856v0.428c0,4.086,1.235,7.221,3.705,9.405c2.327,2.137,5.533,3.206,9.619,3.206
		c6.079,0,10.117-2.066,12.112-6.199l1.923,0.784c-0.95,2.043-2.446,3.658-4.488,4.845
		C538.931,138.857,535.749,139.688,532.045,139.688z M546.009,143.037v2.208h-28.143v-2.208H546.009z M545.154,123.087
		c0-3.704-1.188-6.602-3.562-8.692c-2.328-1.946-5.368-2.921-9.12-2.921c-8.646,0-13.205,3.872-13.68,11.613H545.154z"/>
	<path fill="#191919" d="M556.981,100.573v10.117h7.409v1.994h-7.409v34.983h-2.28v-47.095H556.981z"/>
	<path fill="#191919" d="M574.508,143.037v2.208h-6.911v-2.208H574.508z M570.874,95.87c1.045,0,1.567,1.117,1.567,3.349
		c0,2.28-0.522,3.42-1.567,3.42c-0.997,0-1.496-1.14-1.496-3.42C569.378,96.987,569.877,95.87,570.874,95.87z M569.806,110.69h2.209
		v27.572h-2.209V110.69z"/>
</g>
<g>
	<path fill="#4C4B4C" d="M259.723,171.092h1.345l9.663,25.448h-1.168l-3.292-8.672h-11.856l-3.327,8.672h-1.168L259.723,171.092z
		 M265.846,186.807l-5.45-14.334l-5.557,14.334H265.846z"/>
	<path fill="#4C4B4C" d="M298.867,194.735c-1.746,1.534-4.035,2.3-6.866,2.3c-3.634,0-6.371-1.332-8.211-3.999
		c-1.581-2.288-2.372-5.345-2.372-9.167s0.814-6.925,2.442-9.309c1.864-2.689,4.648-4.035,8.353-4.035
		c2.525,0,4.66,0.696,6.406,2.089c1.251,0.991,2.136,2.206,2.655,3.646l-1.098,0.566c-1.156-3.492-3.882-5.238-8.176-5.238
		c-3.186,0-5.604,1.31-7.256,3.929c-1.393,2.218-2.088,5.002-2.088,8.353c0,3.375,0.673,6.136,2.018,8.282
		c1.604,2.596,3.987,3.894,7.149,3.894c2.548,0,4.612-0.685,6.193-2.053c1.227-1.062,2.041-2.431,2.442-4.106l1.026,0.531
		C301.038,192.14,300.165,193.579,298.867,194.735z"/>
	<path fill="#4C4B4C" d="M306.158,178.171h1.133v3.044c0.943-2.006,2.973-2.996,6.087-2.974l-0.708,0.991
		c-0.873,0-1.498,0.071-1.875,0.213c-0.803,0.236-1.629,0.838-2.478,1.805c-0.686,0.803-1.026,1.829-1.026,3.079v12.211h-1.133
		V178.171z"/>
	<path fill="#4C4B4C" d="M316.493,180.684c1.416-1.935,3.469-2.902,6.158-2.902c2.69,0,4.754,0.968,6.194,2.902
		c1.273,1.699,1.911,3.941,1.911,6.725c0,2.785-0.638,5.038-1.911,6.761c-1.464,1.888-3.528,2.831-6.194,2.831
		c-2.689,0-4.742-0.943-6.158-2.831c-1.274-1.723-1.911-3.976-1.911-6.761C314.582,184.625,315.219,182.383,316.493,180.684z
		 M317.307,193.39c1.227,1.771,3.009,2.655,5.345,2.655s4.129-0.885,5.38-2.655c1.062-1.51,1.593-3.504,1.593-5.981
		c0-2.453-0.531-4.447-1.593-5.981c-1.251-1.77-3.044-2.654-5.38-2.654c-2.359,0-4.141,0.885-5.345,2.654
		c-1.062,1.534-1.593,3.528-1.593,5.981C315.714,189.886,316.245,191.88,317.307,193.39z"/>
	<path fill="#4C4B4C" d="M346.825,195.337c-1.322,1.109-2.985,1.663-4.991,1.663c-2.643,0-4.672-0.967-6.087-2.902
		c-1.251-1.746-1.876-3.976-1.876-6.689c0-2.783,0.637-5.025,1.911-6.725c1.416-1.935,3.469-2.902,6.158-2.902
		c3.327,0,5.509,1.334,6.548,4l-0.956,0.637c-0.307-0.896-0.873-1.687-1.698-2.371c-1.062-0.85-2.36-1.274-3.894-1.274
		c-2.359,0-4.141,0.885-5.345,2.654c-1.062,1.534-1.593,3.528-1.593,5.981c0,2.478,0.531,4.472,1.593,5.981
		c1.227,1.771,3.009,2.655,5.345,2.655c1.439,0,2.695-0.396,3.77-1.187c1.073-0.79,1.787-1.894,2.142-3.309l0.955,0.566
		C348.405,193.438,347.745,194.511,346.825,195.337z"/>
	<path fill="#4C4B4C" d="M353.125,171.128h1.133v10.052c1.155-2.266,3.221-3.398,6.193-3.398c4.199,0,6.3,2.194,6.3,6.583v12.176
		h-1.133v-11.821c0-1.958-0.354-3.397-1.062-4.318c-0.826-1.062-2.183-1.593-4.07-1.593c-3.469,0-5.485,1.569-6.052,4.708
		c-0.048,0.354-0.089,0.796-0.124,1.327c-0.035,0.53-0.053,1.15-0.053,1.857v9.84h-1.133V171.128z"/>
	<path fill="#4C4B4C" d="M378.431,197c-2.619,0-4.613-0.967-5.981-2.902c-1.203-1.722-1.806-3.952-1.806-6.689
		c0-2.736,0.603-4.955,1.806-6.653c1.368-1.982,3.362-2.974,5.981-2.974c2.571,0,4.53,0.885,5.875,2.654
		c1.227,1.582,1.841,3.705,1.841,6.371v0.673h-14.335v0.283c0,2.265,0.531,4.153,1.593,5.663c1.204,1.746,2.879,2.619,5.026,2.619
		c2.973,0,4.99-1.393,6.052-4.177l0.921,0.495c-0.473,1.251-1.216,2.277-2.23,3.079C381.852,196.481,380.271,197,378.431,197z
		 M384.943,186.453c0-2.147-0.508-3.917-1.522-5.31c-1.133-1.58-2.726-2.371-4.778-2.371c-2.123,0-3.787,0.768-4.99,2.301
		c-1.062,1.393-1.663,3.186-1.805,5.38H384.943z"/>
	<path fill="#4C4B4C" d="M390.429,173.145v5.026h3.681v0.991h-3.681v17.378h-1.133v-23.396H390.429z"/>
	<path fill="#4C4B4C" d="M423.238,185.072c-0.024,2.809-0.59,5.156-1.699,7.044l3.575,4.424h-1.451l-2.797-3.397
		c-2.194,2.713-4.742,4.07-7.645,4.07c-2.289,0-4.153-0.673-5.592-2.018c-1.534-1.416-2.277-3.244-2.23-5.486
		c0.095-3.987,2.655-6.913,7.681-8.777c-0.189,0.048-0.342,0.07-0.46,0.07c-0.991,0-1.924-0.637-2.796-1.911
		c-0.779-1.062-1.168-2.053-1.168-2.973c0-1.628,0.495-2.891,1.486-3.787c0.967-0.826,2.171-1.239,3.61-1.239
		c1.486,0,2.672,0.425,3.557,1.274s1.327,2.018,1.327,3.504c0,2.761-1.711,4.861-5.132,6.3c-2.266,0.968-3.905,1.994-4.92,3.08
		c-1.345,1.392-2.018,2.866-2.018,4.424c0,1.864,0.59,3.422,1.771,4.672c1.203,1.228,2.725,1.841,4.565,1.841
		c1.533,0,2.996-0.425,4.389-1.274c1.58-0.92,2.772-2.159,3.574-3.717c0.85-1.58,1.274-3.621,1.274-6.123H423.238z M416.266,178.737
		c0.85-0.873,1.274-1.828,1.274-2.867c0-1.155-0.366-2.076-1.098-2.761c-0.731-0.684-1.676-1.026-2.831-1.026
		c-1.062,0-1.953,0.325-2.673,0.974c-0.72,0.649-1.079,1.504-1.079,2.565c0,0.944,0.33,1.864,0.991,2.761
		c0.778,1.086,1.722,1.629,2.831,1.629c0.118,0,0.295-0.023,0.531-0.071C414.85,179.917,415.534,179.516,416.266,178.737z"/>
	<path fill="#4C4B4C" d="M442.987,185.285l-8.742-14.193h1.345l8.035,12.99l7.928-12.99h1.345l-8.742,14.264v11.185h-1.168V185.285z
		"/>
	<path fill="#4C4B4C" d="M459.445,197c-2.667,0-4.731-0.943-6.194-2.831c-1.273-1.723-1.911-3.976-1.911-6.761
		c0-2.808,0.638-5.061,1.911-6.76c1.416-1.911,3.48-2.867,6.194-2.867c3.421,0,5.733,1.534,6.937,4.602v-4.212h1.098v18.369h-1.098
		v-3.964C465.202,195.525,462.89,197,459.445,197z M454.065,193.39c1.227,1.771,3.02,2.655,5.38,2.655
		c2.359,0,4.141-0.885,5.344-2.655c1.062-1.51,1.593-3.504,1.593-5.981c0-2.453-0.53-4.447-1.593-5.981
		c-1.203-1.77-2.984-2.654-5.344-2.654c-2.36,0-4.142,0.885-5.345,2.654c-1.086,1.511-1.628,3.504-1.628,5.981
		S453.004,191.88,454.065,193.39z"/>
	<path fill="#4C4B4C" d="M472.399,178.171h1.133v3.044c0.943-2.006,2.973-2.996,6.087-2.974l-0.708,0.991
		c-0.873,0-1.498,0.071-1.875,0.213c-0.803,0.236-1.629,0.838-2.478,1.805c-0.686,0.803-1.026,1.829-1.026,3.079v12.211h-1.133
		V178.171z"/>
	<path fill="#4C4B4C" d="M481.707,178.171h1.133v3.009c1.155-2.266,3.221-3.398,6.193-3.398c4.199,0,6.3,2.194,6.3,6.583v12.176
		H494.2v-11.821c0-1.958-0.354-3.397-1.062-4.318c-0.826-1.062-2.183-1.593-4.07-1.593c-3.469,0-5.485,1.569-6.052,4.708
		c-0.048,0.354-0.089,0.796-0.124,1.327c-0.035,0.53-0.053,1.15-0.053,1.857v9.84h-1.133V178.171z"/>
	<path fill="#4C4B4C" d="M509.81,171.092h6.973c3.161,0,5.355,0.366,6.583,1.098c1.816,1.062,2.726,2.796,2.726,5.203
		c0,2.854-1.451,4.79-4.354,5.804c3.774,0.732,5.663,2.915,5.663,6.548c0,2.502-0.968,4.354-2.902,5.557
		c-1.369,0.827-3.682,1.239-6.938,1.239h-7.751V171.092z M516.924,182.843c5.309,0,7.963-1.841,7.963-5.521
		c0-2.146-0.861-3.61-2.583-4.389c-1.133-0.519-2.95-0.778-5.451-0.778h-5.84v10.688H516.924z M517.312,195.479
		c2.784,0,4.695-0.213,5.734-0.638c2.076-0.849,3.114-2.619,3.114-5.309c0-2.312-0.955-3.917-2.867-4.813
		c-1.345-0.637-3.326-0.956-5.945-0.956h-6.336v11.716H517.312z"/>
	<path fill="#4C4B4C" d="M531.328,171.128h1.098v25.412h-1.098V171.128z"/>
	<path fill="#4C4B4C" d="M538.442,180.684c1.416-1.935,3.469-2.902,6.158-2.902c2.69,0,4.754,0.968,6.194,2.902
		c1.273,1.699,1.911,3.941,1.911,6.725c0,2.785-0.638,5.038-1.911,6.761c-1.464,1.888-3.528,2.831-6.194,2.831
		c-2.689,0-4.742-0.943-6.158-2.831c-1.274-1.723-1.911-3.976-1.911-6.761C536.531,184.625,537.168,182.383,538.442,180.684z
		 M539.256,193.39c1.227,1.771,3.009,2.655,5.345,2.655s4.129-0.885,5.38-2.655c1.062-1.51,1.593-3.504,1.593-5.981
		c0-2.453-0.531-4.447-1.593-5.981c-1.251-1.77-3.044-2.654-5.38-2.654c-2.359,0-4.141,0.885-5.345,2.654
		c-1.062,1.534-1.593,3.528-1.593,5.981C537.663,189.886,538.194,191.88,539.256,193.39z"/>
	<path fill="#4C4B4C" d="M563.925,197.035c-2.689,0-4.742-0.955-6.158-2.866c-1.251-1.746-1.876-4-1.876-6.761
		c0-2.808,0.638-5.061,1.911-6.76c1.416-1.911,3.48-2.867,6.194-2.867c1.58,0,2.996,0.378,4.247,1.133
		c1.25,0.756,2.146,1.876,2.689,3.362v-4.105h1.098v17.378c0,2.312-0.39,4.035-1.168,5.168c-1.464,2.123-3.917,3.186-7.362,3.186
		c-1.888,0-3.457-0.414-4.707-1.239c-1.393-0.944-2.112-2.336-2.159-4.177h1.062c0.117,1.581,0.79,2.737,2.017,3.469
		c1.062,0.638,2.419,0.956,4.07,0.956c3.067,0,5.18-1.039,6.336-3.115c0.542-0.968,0.813-2.737,0.813-5.309v-1.876
		C569.659,195.562,567.323,197.035,563.925,197.035z M569.34,181.427c-1.203-1.77-2.984-2.654-5.344-2.654
		c-2.36,0-4.142,0.885-5.345,2.654c-1.086,1.511-1.628,3.504-1.628,5.981s0.531,4.472,1.593,5.981
		c1.227,1.771,3.02,2.655,5.38,2.655c2.359,0,4.141-0.885,5.344-2.655c1.062-1.51,1.593-3.504,1.593-5.981
		C570.933,184.955,570.402,182.961,569.34,181.427z"/>
</g>
</svg>
