<?xml version="1.0" encoding="utf-8"?>
<!-- Generator: Adobe Illustrator 15.0.0, SVG Export Plug-In . SVG Version: 6.00 Build 0)  -->
<!DOCTYPE svg PUBLIC "-//W3C//DTD SVG 1.1//EN" "http://www.w3.org/Graphics/SVG/1.1/DTD/svg11.dtd">
<svg version="1.1" id="Layer_1" xmlns="http://www.w3.org/2000/svg" xmlns:xlink="http://www.w3.org/1999/xlink" x="0px" y="0px"
	 width="1131.584px" height="316.676px" viewBox="0 0 1131.584 316.676" enable-background="new 0 0 1131.584 316.676"
	 xml:space="preserve">
<g>
	<path fill-rule="evenodd" clip-rule="evenodd" fill="#333334" d="M299.787,193.435c27.754-72.179,32.668-152.313-8.166-181.666
		c-3.34-0.61-4.9,1.039-7.963,0.78c-8.31-17.954-53.872-14.211-74.021-3.898c-2.413,5.43-7.496,8.121-10.332,15.593
		c-2.813,7.415-5.054,22.492,0.652,22.611c8.019,0.168,9.055-20.098,18.509-21.051c40.374-10.465,72.684-0.134,84.359,24.949
		c16.266,34.941-1.033,109.415-30.357,157.495c-7.404,8.42-21.229,26.509-21.229,26.509s-20.139,22.611-72.698,52.238
		c-8.372,3.686-19.8,8.098-29.277,9.356c-31.457,4.181-54.83-8.706-45.843-37.425c5.904-18.867,18.808-33.605,27.428-48.34
		c2.867-4.9,10.25-14.486,10.712-21.051c0.292-4.137-3.534-18.043-11.334-16.374c-4.137,0.886-14.122,18.216-19.503,25.729
		c-19.499,27.23-41.396,50.443-64.366,71.73c-7.924,7.344-16.362,15.997-26.141,20.271c-0.888-17.099,9.376-34.707,17.624-49.899
		c20.646-38.026,45.283-72.48,68.257-108.375c3.907-6.104,13.335-16.792,13.997-21.831c0.995-7.576-6.864-13.57-12.728-17.152
		c-7.478,4.445-8.915,12.811-12.72,19.491c-3.843,6.749-8.641,13.307-12.885,20.271c-2.394,3.928-3.782,8.483-6.551,12.476
		c-6.107,8.804-14.827,17.75-20.779,28.068c-7.228,12.527-12.804,21.374-19.436,32.746C17.152,237.292-9.036,280.468,3.102,312.725
		c12.13,9.212,23.171,0.407,31.899-7.017c2.918-2.481,7.265-3.972,9.902-6.238c3.137-2.693,5.704-6.873,9.172-10.135
		c9.558-8.992,21.433-21.178,29.639-25.73c-0.451,12.922-2.059,25.12,3.789,33.527c8.928,12.834,35.75,21.645,60.736,18.712
		c29.953-3.516,55.553-20.858,77.131-32.747c7.121-8.572,18.303-14.556,27.583-23.391c7.065-6.727,15.757-19.732,22.339-28.068
		C283.783,220.888,294.267,207.791,299.787,193.435z"/>
	<path fill-rule="evenodd" clip-rule="evenodd" fill="#333334" d="M527.732,96.754c-1.002,0.378-1.945,0.831-2.671,1.56
		c-5.859,4.795-5.591,19.793-7.906,33.525c-2.26,13.403-4.326,26.627-7.175,37.425c-6.883,26.086-17.138,51.235-20.705,71.73
		c-3.177,18.257-2.809,48.376,9.003,53.019c5.334,2.097,11.432,0.732,15.477-3.119c4.479-11.976-6.02-13.596-7.669-22.61
		c-2.963-16.199,6.63-43.937,14.916-70.171c8.62-27.297,13.961-57.242,16.075-75.629C538.417,110.812,536.727,98.902,527.732,96.754
		z"/>
	<path fill-rule="evenodd" clip-rule="evenodd" fill="#333334" d="M581.925,164.586c15.604-12.512,30.969-64.188,11.182-70.95
		c-0.693-1.767-3.619,1.925-5.175,2.338c-3.767,22.155-8.639,46.55-14.584,68.612C577.373,164.075,579.433,165.566,581.925,164.586z
		"/>
	<path fill-rule="evenodd" clip-rule="evenodd" fill="#333334" d="M632.299,213.707c5.933,1.011,7.292,14.607,17.669,8.576
		c9.704-13.914-1.395-25.887-7.854-32.746c-2.299,0.453-6.258-0.55-10.136,0c-16.137,2.283-45.532,21.398-49.678,31.967
		c-2.101,5.356-3.386,16.884-0.41,20.271c4.468,5.086,17.349,1.883,27.405,3.118c10.426,1.28,17.109,6.03,22.796,10.136
		c13.579,19.248-20.849,31.901-39.609,24.95c-0.077-7.224-1.601-13.255-9.492-14.034c-8.85,2.02-13.12,19.529-11.872,26.509
		c2.143,11.979,30.449,15.772,48.525,10.136c3.857-1.203,11.545-4.46,14.58-6.237c27.132-15.886,17.908-56.101,1.445-65.493
		c-7.712-4.4-15.307-3.745-26.576-7.018C613.443,220,626.3,212.684,632.299,213.707z"/>
	<path fill-rule="evenodd" clip-rule="evenodd" fill="#333334" d="M1120.371,61.964c-4.384,2.157-7.418,9.267-8.841,14.968
		c-8.654,34.681-20.203,84.903-26.497,118.213c-15.094-15.56-46.164,1.904-61.02,12.036c-3.949,2.693-9.067,5.199-12.166,7.713
		c-14.475,11.743-28.549,38.988-22.014,56.145c3.641,9.557,19.797,18.066,33.973,21.133c17.711,3.827,37.336-3.048,51.656-8.804
		c5.76,11.935,7.307,26.961,27.297,28.456c18.186-10.875,2.23-18.824-4.144-29.021c-7.293-10.153-4.017-30.545-2.077-39.554
		c-0.143-0.159-0.271-0.328-0.371-0.52c9.185-36.112,14.254-94.423,28.133-137.593C1130.157,86.92,1138.945,63.96,1120.371,61.964z
		 M1073.66,259.843c-2.949,5.648-15.491,10.29-21.53,10.946c-21.465,2.331-52.783-7.403-39.241-26.966
		c7.704-11.129,37.259-29.543,55.015-28.841c1.672,3.418,1.138,8.458,0.845,13.317c1.08,2.844,5.572,3.186,8.709,4.519
		C1071.967,244.15,1078.445,250.687,1073.66,259.843z"/>
	<path fill-rule="evenodd" clip-rule="evenodd" fill="#333334" d="M365.429,228.166c-1.366-3.111-3.021-6.186-4.357-10.115
		c-8.777-17.802-18.058-22.661-22.229-23.981c-4.323-0.655-6.983-2.958-11.767-0.634c-20.758,10.08-45.557,37.6-53.188,63.153
		c-5.4,18.083-1.425,33.974,5.582,39.764c29.187,24.118,83.393-15.644,88.292-52.238c0.753-5.624,0.054-9.602-1.23-13.201
		C366.184,230.107,365.818,229.195,365.429,228.166z M339.283,264.385c-6.232,7.103-9.882,8.709-19.189,13.255
		c-11.338,5.535-31.88,7.387-31.09-7.797c0.57-10.975,14.625-30.508,25.613-40.851v-0.001c0,0,1.822-2.125,4.805-4.063
		c1.043-0.765,2.025-1.402,2.916-1.866c0.16,0.018,0.322,0.037,0.482,0.057c4.445-1.856,10.255-2.308,16.303,2.672
		c0,0,11.925,8.015,11.363,13.98c0.057,0.148,0.119,0.294,0.172,0.444C348.746,251.231,346.457,256.21,339.283,264.385z"/>
	<path fill-rule="evenodd" clip-rule="evenodd" fill="#333334" d="M434.242,202.791c-1.984,0.173-4.018,0.713-6.081,1.395
		c-1.369,0.844-4.212,1.896-9.003,3.157c0,0-0.001,0.001-0.002,0.001c-0.551,0.166-1.102,0.325-1.653,0.466
		c-31.206,9.298-39.562,43.007-39.562,43.007l0,0c-4.007,16.155-9.707,29.758-2.97,40.078c8.755,13.412,35.038,14.744,56.371,6.238
		c8.569-3.418,23.655-13.939,30.7-23.391C483.708,244.673,466.775,199.951,434.242,202.791z M454.706,249.572
		c-3.084,15.476-27.125,32.479-46.558,31.967c-6.642-0.176-17.455-3.531-18.449-8.577c-1.276-6.479,13.905-34.679,18.422-38.983
		c5.943-5.664,18.408-7.988,26.773-8.576C447.826,224.494,457.538,235.359,454.706,249.572z"/>
	<path fill-rule="evenodd" clip-rule="evenodd" fill="#333334" d="M987.827,237.361c1.621-7.107,4.383-13.676,4.864-19.93
		c1.526-19.753-5.812-41.092-19.961-43.532c-20.211-3.485-36.364,15.541-50.602,26.814c-2.132-7.472,2.654-24.98-9.549-23.295
		c-6.445,0.89-11.459,14.169-11.432,24.142c0.012,4.37,2.273,5.689,1.926,9.496c-1.677,18.351-11.982,34.883-12.644,47.451
		c-26.511,25.654-80.956,37.124-123.983,30.952c-10.573-1.515-24.21-6.164-29.791-11.477c-14.362-13.673,3.513-48.602,16.218-68.253
		c38.447-8.512,77.623-15.909,124.607-11.413c2.782-3.054,6.031-5.394,7.007-11.199c-6.438-6.644-17.025-9.399-30.223-9.948
		c-13.704-0.571-29.389-0.812-44.008,0.769c-15.1,1.634-29.874,6.552-41.537,5.624c2.72-12.698,21.835-32.269,23.291-44.355
		c0.76-6.311-4.915-7.396-4.395-14.35c16.369-3.928,40.92-8.926,59.081-10.614c10.609-0.985,25.303,2.755,28.198-7.353
		c2.985-10.422-12.076-8.604-20.844-9.227c-2.823,1.393-4.498,3.059-5.445,1.479c-0.678-1.13-2.045-2.368-3.372-3.409
		c-1.974-0.554-3.911-0.959-6.153-0.75c-36.379,3.395-81.096,9.48-113.428,20.786c-14.903,39.073,33.357,9.497,48.617,12.817
		c-9.924,22.431-20.957,43.172-34.07,60.744c-7.586,2.846-17.047-0.396-23.024-0.078c-4.597,5.646-6.949,15.943-3.574,20.801
		c3.065,4.414,9.604,2.041,13.765,5.659c-10.249,24.132-17.635,47.864-13.631,64.538c4.188,17.438,27.383,29.508,50.211,31.646
		c32.259,3.021,77.397-2.98,99.97-13.945c6.673-3.24,11.102-9.606,17.872-8.866c-1.176,7.476,8.334,12.474,15.808,6.583
		c12.081-28.178,20.179-67.24,41.416-86.736c7.747-7.112,19.261-10.308,30.785-11.067c4.433,6.664,6.213,14.924,4.599,24.503
		c-4.7,27.864-24.99,49.783-21.602,70.99c6.157,2.697,15.055,1.41,18.617-3.355c2.225-4.864-1.264-5.537,0.55-10.1
		C981.968,268.056,984.066,253.86,987.827,237.361z"/>
</g>
</svg>
